<svg width="2000" height="2000" viewBox="0 0 2000 2000" fill="none" xmlns="http://www.w3.org/2000/svg">
<g clip-path="url(#clip0_102_2)">
<circle cx="538" cy="758" r="1" fill="white"/>
<circle cx="813" cy="1108.32" r="1" fill="white"/>
<circle cx="944.729" cy="1314.57" r="1" fill="white"/>
<circle cx="129.729" cy="1597.57" r="1" fill="white"/>
<circle cx="82.7285" cy="1185.57" r="1" fill="white"/>
<circle cx="128.963" cy="977.836" r="1" transform="rotate(-82.3116 128.963 977.836)" fill="white"/>
<circle cx="1843.96" cy="968.836" r="1" transform="rotate(-82.3116 1843.96 968.836)" fill="white"/>
<circle cx="1534.96" cy="709.836" r="1" transform="rotate(-82.3116 1534.96 709.836)" fill="white"/>
<circle cx="719.963" cy="692.836" r="1" transform="rotate(-82.3116 719.963 692.836)" fill="white"/>
<circle cx="358.775" cy="11.2311" r="1" transform="rotate(100.983 358.775 11.2311)" fill="white"/>
<circle cx="342" cy="1164.32" r="1" fill="white"/>
<circle cx="289" cy="452.322" r="1" fill="white"/>
<circle cx="775.201" cy="276.118" r="1" transform="rotate(-176.705 775.201 276.118)" fill="white"/>
<circle cx="1026.5" cy="435.016" r="1" transform="rotate(33.3194 1026.5 435.016)" fill="white"/>
<circle cx="37.9285" cy="251.007" r="1" transform="rotate(-143.386 37.9285 251.007)" fill="white"/>
<circle cx="828.849" cy="906.725" r="1" transform="rotate(20.4808 828.849 906.725)" fill="white"/>
<circle cx="1103.85" cy="1257.05" r="1" transform="rotate(20.4808 1103.85 1257.05)" fill="white"/>
<circle cx="1235.58" cy="1463.3" r="1" transform="rotate(20.4808 1235.58 1463.3)" fill="white"/>
<circle cx="1451.02" cy="1955.27" r="1" transform="rotate(-160.437 1451.02 1955.27)" fill="white"/>
<circle cx="420.577" cy="1746.3" r="1" transform="rotate(20.4808 420.577 1746.3)" fill="white"/>
<circle cx="373.577" cy="1334.3" r="1" transform="rotate(20.4808 373.577 1334.3)" fill="white"/>
<circle cx="315.262" cy="709.5" r="1" transform="rotate(-61.8308 315.262 709.5)" fill="white"/>
<circle cx="763.765" cy="17.8559" r="1" transform="rotate(121.464 763.765 17.8559)" fill="white"/>
<circle cx="1721.26" cy="441.5" r="1" transform="rotate(-61.8308 1721.26 441.5)" fill="white"/>
<circle cx="906.262" cy="424.5" r="1" transform="rotate(-61.8308 906.262 424.5)" fill="white"/>
<circle cx="157.36" cy="268.416" r="1" transform="rotate(121.464 157.36 268.416)" fill="white"/>
<circle cx="632.849" cy="1313.05" r="1" transform="rotate(20.4808 632.849 1313.05)" fill="white"/>
<circle cx="579.849" cy="601.047" r="1" transform="rotate(20.4808 579.849 601.047)" fill="white"/>
<circle cx="493.382" cy="110.921" r="1" transform="rotate(-156.224 493.382 110.921)" fill="white"/>
<circle cx="1187.84" cy="719.058" r="1" transform="rotate(53.8001 1187.84 719.058)" fill="white"/>
<circle cx="170.015" cy="1677.1" r="1" transform="rotate(-53.9622 170.015 1677.1)" fill="white"/>
<circle cx="5.6557" cy="928.293" r="1" transform="rotate(-28.6278 5.6557 928.293)" fill="white"/>
<circle cx="268.357" cy="681.615" r="1" transform="rotate(-28.6278 268.357 681.615)" fill="white"/>
<circle cx="808.989" cy="48.3903" r="1" transform="rotate(154.667 808.989 48.3903)" fill="white"/>
<circle cx="543.357" cy="1031.94" r="1" transform="rotate(-28.6278 543.357 1031.94)" fill="white"/>
<circle cx="72.3569" cy="1087.94" r="1" transform="rotate(-28.6278 72.3569 1087.94)" fill="white"/>
<circle cx="19.3569" cy="375.937" r="1" transform="rotate(-28.6278 19.3569 375.937)" fill="white"/>
<circle cx="843.137" cy="223.07" r="1" transform="rotate(4.69154 843.137 223.07)" fill="white"/>
<circle cx="208.804" cy="473.141" r="1" transform="rotate(-172.013 208.804 473.141)" fill="white"/>
<circle cx="654.357" cy="1034.61" r="1" transform="rotate(-28.6278 654.357 1034.61)" fill="white"/>
<circle cx="929.357" cy="1384.94" r="1" transform="rotate(-28.6278 929.357 1384.94)" fill="white"/>
<circle cx="1061.09" cy="1591.19" r="1" transform="rotate(-28.6278 1061.09 1591.19)" fill="white"/>
<circle cx="1623.44" cy="1824.6" r="1" transform="rotate(150.454 1623.44 1824.6)" fill="white"/>
<circle cx="1848.85" cy="1434.07" r="1" transform="rotate(52.5443 1848.85 1434.07)" fill="white"/>
<circle cx="246.085" cy="1874.19" r="1" transform="rotate(-28.6278 246.085 1874.19)" fill="white"/>
<circle cx="199.085" cy="1462.19" r="1" transform="rotate(-28.6278 199.085 1462.19)" fill="white"/>
<circle cx="418.658" cy="899.532" r="1" transform="rotate(-110.939 418.658 899.532)" fill="white"/>
<circle cx="1824.66" cy="631.532" r="1" transform="rotate(-110.939 1824.66 631.532)" fill="white"/>
<circle cx="1009.66" cy="614.532" r="1" transform="rotate(-110.939 1009.66 614.532)" fill="white"/>
<circle cx="65.0582" cy="72.7546" r="1" transform="rotate(72.3556 65.0582 72.7546)" fill="white"/>
<circle cx="458.357" cy="1440.94" r="1" transform="rotate(-28.6278 458.357 1440.94)" fill="white"/>
<circle cx="405.357" cy="728.937" r="1" transform="rotate(-28.6278 405.357 728.937)" fill="white"/>
<circle cx="971.781" cy="730.076" r="1" transform="rotate(4.69154 971.781 730.076)" fill="white"/>
<circle cx="851.357" cy="678.615" r="1" transform="rotate(-28.6278 851.357 678.615)" fill="white"/>
<circle cx="226.781" cy="17.8766" r="1" transform="rotate(154.667 226.781 17.8766)" fill="white"/>
<circle cx="1126.36" cy="1028.94" r="1" transform="rotate(-28.6278 1126.36 1028.94)" fill="white"/>
<circle cx="1258.09" cy="1235.19" r="1" transform="rotate(-28.6278 1258.09 1235.19)" fill="white"/>
<circle cx="443.085" cy="1518.19" r="1" transform="rotate(-28.6278 443.085 1518.19)" fill="white"/>
<circle cx="396.085" cy="1106.19" r="1" transform="rotate(-28.6278 396.085 1106.19)" fill="white"/>
<circle cx="92.2143" cy="656.676" r="1" transform="rotate(-110.939 92.2143 656.676)" fill="white"/>
<circle cx="1807.21" cy="647.676" r="1" transform="rotate(-110.939 1807.21 647.676)" fill="white"/>
<circle cx="1498.21" cy="388.676" r="1" transform="rotate(-110.939 1498.21 388.676)" fill="white"/>
<circle cx="683.214" cy="371.676" r="1" transform="rotate(-110.939 683.214 371.676)" fill="white"/>
<circle cx="377.003" cy="333.972" r="1" transform="rotate(72.3556 377.003 333.972)" fill="white"/>
<circle cx="655.357" cy="1084.94" r="1" transform="rotate(-28.6278 655.357 1084.94)" fill="white"/>
<circle cx="602.357" cy="372.937" r="1" transform="rotate(-28.6278 602.357 372.937)" fill="white"/>
<circle cx="457.799" cy="337.361" r="1" transform="rotate(154.667 457.799 337.361)" fill="white"/>
<circle cx="1331.95" cy="540.808" r="1" transform="rotate(4.69154 1331.95 540.808)" fill="white"/>
<circle cx="512.357" cy="622.615" r="1" transform="rotate(-28.6278 512.357 622.615)" fill="white"/>
<circle cx="562.001" cy="93.2687" r="1" transform="rotate(154.667 562.001 93.2687)" fill="white"/>
<circle cx="787.357" cy="972.937" r="1" transform="rotate(-28.6278 787.357 972.937)" fill="white"/>
<circle cx="919.085" cy="1179.19" r="1" transform="rotate(-28.6278 919.085 1179.19)" fill="white"/>
<circle cx="104.085" cy="1462.19" r="1" transform="rotate(-28.6278 104.085 1462.19)" fill="white"/>
<circle cx="57.0854" cy="1050.19" r="1" transform="rotate(-28.6278 57.0854 1050.19)" fill="white"/>
<circle cx="1706.36" cy="976.136" r="1" transform="rotate(-110.939 1706.36 976.136)" fill="white"/>
<circle cx="1397.36" cy="717.136" r="1" transform="rotate(-110.939 1397.36 717.136)" fill="white"/>
<circle cx="582.364" cy="700.136" r="1" transform="rotate(-110.939 582.364 700.136)" fill="white"/>
<circle cx="496.566" cy="11.8523" r="1" transform="rotate(72.3556 496.566 11.8523)" fill="white"/>
<circle cx="316.357" cy="1028.94" r="1" transform="rotate(-28.6278 316.357 1028.94)" fill="white"/>
<circle cx="263.357" cy="316.937" r="1" transform="rotate(-28.6278 263.357 316.937)" fill="white"/>
<circle cx="793.021" cy="412.753" r="1" transform="rotate(154.667 793.021 412.753)" fill="white"/>
<circle cx="1079.44" cy="307.799" r="1" transform="rotate(4.69154 1079.44 307.799)" fill="white"/>
<circle cx="663.357" cy="559.615" r="1" transform="rotate(-28.6278 663.357 559.615)" fill="white"/>
<circle cx="407.63" cy="147.485" r="1" transform="rotate(154.667 407.63 147.485)" fill="white"/>
<circle cx="938.357" cy="909.937" r="1" transform="rotate(-28.6278 938.357 909.937)" fill="white"/>
<circle cx="467.357" cy="965.937" r="1" transform="rotate(-28.6278 467.357 965.937)" fill="white"/>
<circle cx="414.357" cy="253.937" r="1" transform="rotate(-28.6278 414.357 253.937)" fill="white"/>
<circle cx="638.649" cy="466.969" r="1" transform="rotate(154.667 638.649 466.969)" fill="white"/>
<circle cx="1240.22" cy="338.1" r="1" transform="rotate(4.69154 1240.22 338.1)" fill="white"/>
<circle cx="903" cy="449" r="1" fill="white"/>
<circle cx="162.025" cy="244.144" r="1" transform="rotate(-176.705 162.025 244.144)" fill="white"/>
<circle cx="1178" cy="799.322" r="1" fill="white"/>
<circle cx="707" cy="855.322" r="1" fill="white"/>
<circle cx="654" cy="143.322" r="1" fill="white"/>
<circle cx="1501.23" cy="377.305" r="1" transform="rotate(33.3194 1501.23 377.305)" fill="white"/>
<circle cx="1278.89" cy="744.968" r="1" transform="rotate(20.4808 1278.89 744.968)" fill="white"/>
<circle cx="1553.89" cy="1095.29" r="1" transform="rotate(20.4808 1553.89 1095.29)" fill="white"/>
<circle cx="1685.62" cy="1301.54" r="1" transform="rotate(20.4808 1685.62 1301.54)" fill="white"/>
<circle cx="870.622" cy="1584.54" r="1" transform="rotate(20.4808 870.622 1584.54)" fill="white"/>
<circle cx="1813.99" cy="1828.2" r="1" transform="rotate(-160.437 1813.99 1828.2)" fill="white"/>
<circle cx="1826.18" cy="1244.85" r="1" transform="rotate(101.653 1826.18 1244.85)" fill="white"/>
<circle cx="823.622" cy="1172.54" r="1" transform="rotate(20.4808 823.622 1172.54)" fill="white"/>
<circle cx="215.169" cy="241.86" r="1" transform="rotate(-61.8308 215.169 241.86)" fill="white"/>
<circle cx="836.814" cy="490.476" r="1" transform="rotate(121.464 836.814 490.476)" fill="white"/>
<circle cx="1930.17" cy="232.86" r="1" transform="rotate(-61.8308 1930.17 232.86)" fill="white"/>
<circle cx="1082.89" cy="1151.29" r="1" transform="rotate(20.4808 1082.89 1151.29)" fill="white"/>
<circle cx="1214.62" cy="1357.54" r="1" transform="rotate(20.4808 1214.62 1357.54)" fill="white"/>
<circle cx="399.622" cy="1640.54" r="1" transform="rotate(20.4808 399.622 1640.54)" fill="white"/>
<circle cx="352.622" cy="1228.54" r="1" transform="rotate(20.4808 352.622 1228.54)" fill="white"/>
<circle cx="207.652" cy="716.117" r="1" transform="rotate(-61.8308 207.652 716.117)" fill="white"/>
<circle cx="1922.65" cy="707.117" r="1" transform="rotate(-61.8308 1922.65 707.117)" fill="white"/>
<circle cx="1613.65" cy="448.117" r="1" transform="rotate(-61.8308 1613.65 448.117)" fill="white"/>
<circle cx="798.652" cy="431.117" r="1" transform="rotate(-61.8308 798.652 431.117)" fill="white"/>
<circle cx="265.172" cy="267.995" r="1" transform="rotate(121.464 265.172 267.995)" fill="white"/>
<circle cx="1029.89" cy="439.29" r="1" transform="rotate(20.4808 1029.89 439.29)" fill="white"/>
<circle cx="34.7829" cy="246.545" r="1" transform="rotate(-156.224 34.7829 246.545)" fill="white"/>
<circle cx="1652.76" cy="831.103" r="1" transform="rotate(53.8001 1652.76 831.103)" fill="white"/>
<circle cx="134.884" cy="1200.16" r="1" transform="rotate(-53.9622 134.884 1200.16)" fill="white"/>
<circle cx="177.986" cy="482.19" r="1" transform="rotate(-28.6278 177.986 482.19)" fill="white"/>
<circle cx="79.6869" cy="195.512" r="1" transform="rotate(-28.6278 79.6869 195.512)" fill="white"/>
<circle cx="440.687" cy="235.512" r="1" transform="rotate(-28.6278 440.687 235.512)" fill="white"/>
<circle cx="611.303" cy="483.851" r="1" transform="rotate(154.667 611.303 483.851)" fill="white"/>
<circle cx="826.687" cy="588.512" r="1" transform="rotate(-28.6278 826.687 588.512)" fill="white"/>
<circle cx="246.231" cy="109.249" r="1" transform="rotate(154.667 246.231 109.249)" fill="white"/>
<circle cx="1101.69" cy="938.834" r="1" transform="rotate(-28.6278 1101.69 938.834)" fill="white"/>
<circle cx="630.687" cy="994.834" r="1" transform="rotate(-28.6278 630.687 994.834)" fill="white"/>
<circle cx="577.687" cy="282.834" r="1" transform="rotate(-28.6278 577.687 282.834)" fill="white"/>
<circle cx="477.249" cy="428.733" r="1" transform="rotate(154.667 477.249 428.733)" fill="white"/>
<circle cx="1360.83" cy="451.965" r="1" transform="rotate(4.69154 1360.83 451.965)" fill="white"/>
<circle cx="1023.69" cy="232.512" r="1" transform="rotate(-28.6278 1023.69 232.512)" fill="white"/>
<circle cx="29.095" cy="453.338" r="1" transform="rotate(154.667 29.095 453.338)" fill="white"/>
<circle cx="684.687" cy="176.512" r="1" transform="rotate(-28.6278 684.687 176.512)" fill="white"/>
<circle cx="364.316" cy="528.729" r="1" transform="rotate(154.667 364.316 528.729)" fill="white"/>
<circle cx="835.687" cy="113.512" r="1" transform="rotate(-28.6278 835.687 113.512)" fill="white"/>
<circle cx="1218" cy="943" r="1" fill="white"/>
<circle cx="1493" cy="1293.32" r="1" fill="white"/>
<circle cx="1624.73" cy="1499.57" r="1" fill="white"/>
<circle cx="1526.73" cy="1477.53" r="1" transform="rotate(-97.9098 1526.73 1477.53)" fill="white"/>
<circle cx="1061.34" cy="1925.23" r="1" transform="rotate(179.082 1061.34 1925.23)" fill="white"/>
<circle cx="809.729" cy="1782.57" r="1" fill="white"/>
<circle cx="1871.7" cy="1629.21" r="1" transform="rotate(179.082 1871.7 1629.21)" fill="white"/>
<circle cx="1621.15" cy="1215.07" r="1" transform="rotate(81.1722 1621.15 1215.07)" fill="white"/>
<circle cx="762.729" cy="1370.57" r="1" fill="white"/>
<circle cx="403.274" cy="328.699" r="1" transform="rotate(-82.3116 403.274 328.699)" fill="white"/>
<circle cx="654.01" cy="392.968" r="1" transform="rotate(100.983 654.01 392.968)" fill="white"/>
<circle cx="1809.27" cy="60.6994" r="1" transform="rotate(-82.3116 1809.27 60.6994)" fill="white"/>
<circle cx="994.274" cy="43.6994" r="1" transform="rotate(-82.3116 994.274 43.6994)" fill="white"/>
<circle cx="1022" cy="1349.32" r="1" fill="white"/>
<circle cx="1153.73" cy="1555.57" r="1" fill="white"/>
<circle cx="1531.38" cy="1861.7" r="1" transform="rotate(179.082 1531.38 1861.7)" fill="white"/>
<circle cx="1898.26" cy="1520.15" r="1" transform="rotate(81.1722 1898.26 1520.15)" fill="white"/>
<circle cx="338.729" cy="1838.57" r="1" fill="white"/>
<circle cx="291.729" cy="1426.57" r="1" fill="white"/>
<circle cx="395.758" cy="802.958" r="1" transform="rotate(-82.3116 395.758 802.958)" fill="white"/>
<circle cx="1801.76" cy="534.958" r="1" transform="rotate(-82.3116 1801.76 534.958)" fill="white"/>
<circle cx="986.758" cy="517.958" r="1" transform="rotate(-82.3116 986.758 517.958)" fill="white"/>
<circle cx="82.3698" cy="170.486" r="1" transform="rotate(100.983 82.3698 170.486)" fill="white"/>
<circle cx="969" cy="637.322" r="1" fill="white"/>
<circle cx="106.959" cy="52.3397" r="1" transform="rotate(-176.705 106.959 52.3397)" fill="white"/>
<circle cx="1493.1" cy="963.133" r="1" transform="rotate(33.3194 1493.1 963.133)" fill="white"/>
<circle cx="1624.83" cy="1169.38" r="1" transform="rotate(33.3194 1624.83 1169.38)" fill="white"/>
<circle cx="809.827" cy="1452.38" r="1" transform="rotate(33.3194 809.827 1452.38)" fill="white"/>
<circle cx="1876.89" cy="1959.36" r="1" transform="rotate(-147.599 1876.89 1959.36)" fill="white"/>
<circle cx="1947.45" cy="1164.49" r="1" transform="rotate(114.492 1947.45 1164.49)" fill="white"/>
<circle cx="762.827" cy="1040.38" r="1" transform="rotate(33.3194 762.827 1040.38)" fill="white"/>
<circle cx="76.0661" cy="284.427" r="1" transform="rotate(-48.9922 76.0661 284.427)" fill="white"/>
<circle cx="1791.07" cy="275.427" r="1" transform="rotate(-48.9922 1791.07 275.427)" fill="white"/>
<circle cx="1482.07" cy="16.4269" r="1" transform="rotate(-48.9922 1482.07 16.4269)" fill="white"/>
<circle cx="667.066" cy="-0.573068" r="1" transform="rotate(-48.9922 667.066 -0.573068)" fill="white"/>
<circle cx="1401.14" cy="1317.96" r="1" transform="rotate(20.4808 1401.14 1317.96)" fill="white"/>
<circle cx="1532.86" cy="1524.21" r="1" transform="rotate(20.4808 1532.86 1524.21)" fill="white"/>
<circle cx="1563.78" cy="1565.13" r="1" transform="rotate(-77.429 1563.78 1565.13)" fill="white"/>
<circle cx="1152.8" cy="1899.13" r="1" transform="rotate(-160.437 1152.8 1899.13)" fill="white"/>
<circle cx="717.864" cy="1807.21" r="1" transform="rotate(20.4808 717.864 1807.21)" fill="white"/>
<circle cx="1963.16" cy="1603.11" r="1" transform="rotate(-160.437 1963.16 1603.11)" fill="white"/>
<circle cx="1582.71" cy="1128.07" r="1" transform="rotate(101.653 1582.71 1128.07)" fill="white"/>
<circle cx="670.864" cy="1395.21" r="1" transform="rotate(20.4808 670.864 1395.21)" fill="white"/>
<circle cx="415.399" cy="423.034" r="1" transform="rotate(-61.8308 415.399 423.034)" fill="white"/>
<circle cx="647.328" cy="298.093" r="1" transform="rotate(121.464 647.328 298.093)" fill="white"/>
<circle cx="1821.4" cy="155.034" r="1" transform="rotate(-61.8308 1821.4 155.034)" fill="white"/>
<circle cx="1006.4" cy="138.034" r="1" transform="rotate(-61.8308 1006.4 138.034)" fill="white"/>
<circle cx="1676.14" cy="1668.28" r="1" transform="rotate(20.4808 1676.14 1668.28)" fill="white"/>
<circle cx="1686.76" cy="1403.4" r="1" transform="rotate(-77.429 1686.76 1403.4)" fill="white"/>
<circle cx="1007.24" cy="1757.37" r="1" transform="rotate(-160.437 1007.24 1757.37)" fill="white"/>
<circle cx="1205.14" cy="1724.28" r="1" transform="rotate(20.4808 1205.14 1724.28)" fill="white"/>
<circle cx="1477.28" cy="1693.83" r="1" transform="rotate(-160.437 1477.28 1693.83)" fill="white"/>
<circle cx="1152.14" cy="1012.28" r="1" transform="rotate(20.4808 1152.14 1012.28)" fill="white"/>
<circle cx="1283.86" cy="1218.53" r="1" transform="rotate(20.4808 1283.86 1218.53)" fill="white"/>
<circle cx="468.864" cy="1501.53" r="1" transform="rotate(20.4808 468.864 1501.53)" fill="white"/>
<circle cx="421.864" cy="1089.53" r="1" transform="rotate(20.4808 421.864 1089.53)" fill="white"/>
<circle cx="79.1564" cy="628.9" r="1" transform="rotate(-61.8308 79.1564 628.9)" fill="white"/>
<circle cx="1794.16" cy="619.9" r="1" transform="rotate(-61.8308 1794.16 619.9)" fill="white"/>
<circle cx="1485.16" cy="360.9" r="1" transform="rotate(-61.8308 1485.16 360.9)" fill="white"/>
<circle cx="670.156" cy="343.9" r="1" transform="rotate(-61.8308 670.156 343.9)" fill="white"/>
<circle cx="388.443" cy="362.453" r="1" transform="rotate(121.464 388.443 362.453)" fill="white"/>
<circle cx="1440.16" cy="1377.05" r="1" transform="rotate(53.8001 1440.16 1377.05)" fill="white"/>
<circle cx="1571.89" cy="1583.31" r="1" transform="rotate(53.8001 1571.89 1583.31)" fill="white"/>
<circle cx="1616.94" cy="1518.34" r="1" transform="rotate(-44.1097 1616.94 1518.34)" fill="white"/>
<circle cx="1112.83" cy="1840.67" r="1" transform="rotate(-127.118 1112.83 1840.67)" fill="white"/>
<circle cx="756.892" cy="1866.31" r="1" transform="rotate(53.8001 756.892 1866.31)" fill="white"/>
<circle cx="709.892" cy="1454.31" r="1" transform="rotate(53.8001 709.892 1454.31)" fill="white"/>
<circle cx="1976.78" cy="1955.84" r="1" transform="rotate(-127.118 1976.78 1955.84)" fill="white"/>
<circle cx="1930.21" cy="1066.03" r="1" transform="rotate(134.972 1930.21 1066.03)" fill="white"/>
<circle cx="479.184" cy="392.263" r="1" transform="rotate(-28.5114 479.184 392.263)" fill="white"/>
<circle cx="581.879" cy="325.146" r="1" transform="rotate(154.784 581.879 325.146)" fill="white"/>
<circle cx="1885.18" cy="124.263" r="1" transform="rotate(-28.5114 1885.18 124.263)" fill="white"/>
<circle cx="1070.18" cy="107.263" r="1" transform="rotate(-28.5114 1070.18 107.263)" fill="white"/>
<circle cx="719.668" cy="1236.07" r="1" transform="rotate(-53.9622 719.668 1236.07)" fill="white"/>
<circle cx="851.397" cy="1442.32" r="1" transform="rotate(-53.9622 851.397 1442.32)" fill="white"/>
<circle cx="1835.49" cy="1970.09" r="1" transform="rotate(125.12 1835.49 1970.09)" fill="white"/>
<circle cx="1963.77" cy="1204.02" r="1" transform="rotate(27.21 1963.77 1204.02)" fill="white"/>
<circle cx="36.3969" cy="1725.32" r="1" transform="rotate(-53.9622 36.3969 1725.32)" fill="white"/>
<circle cx="243.074" cy="1087.42" r="1" transform="rotate(-136.274 243.074 1087.42)" fill="white"/>
<circle cx="1958.07" cy="1078.42" r="1" transform="rotate(-136.274 1958.07 1078.42)" fill="white"/>
<circle cx="1649.07" cy="819.419" r="1" transform="rotate(-136.274 1649.07 819.419)" fill="white"/>
<circle cx="834.074" cy="802.419" r="1" transform="rotate(-136.274 834.074 802.419)" fill="white"/>
<circle cx="994.668" cy="1586.39" r="1" transform="rotate(-53.9622 994.668 1586.39)" fill="white"/>
<circle cx="1689.93" cy="1828.33" r="1" transform="rotate(125.12 1689.93 1828.33)" fill="white"/>
<circle cx="1843.39" cy="1367.71" r="1" transform="rotate(27.21 1843.39 1367.71)" fill="white"/>
<circle cx="523.668" cy="1642.39" r="1" transform="rotate(-53.9622 523.668 1642.39)" fill="white"/>
<circle cx="470.668" cy="930.391" r="1" transform="rotate(-53.9622 470.668 930.391)" fill="white"/>
<circle cx="915.698" cy="934.291" r="1" transform="rotate(-20.6428 915.698 934.291)" fill="white"/>
<circle cx="691.164" cy="764.876" r="1" transform="rotate(-28.6278 691.164 764.876)" fill="white"/>
<circle cx="966.164" cy="1115.2" r="1" transform="rotate(-28.6278 966.164 1115.2)" fill="white"/>
<circle cx="1097.89" cy="1321.45" r="1" transform="rotate(-28.6278 1097.89 1321.45)" fill="white"/>
<circle cx="282.892" cy="1604.45" r="1" transform="rotate(-28.6278 282.892 1604.45)" fill="white"/>
<circle cx="235.892" cy="1192.45" r="1" transform="rotate(-28.6278 235.892 1192.45)" fill="white"/>
<circle cx="156.268" cy="826.969" r="1" transform="rotate(-110.939 156.268 826.969)" fill="white"/>
<circle cx="1871.27" cy="817.969" r="1" transform="rotate(-110.939 1871.27 817.969)" fill="white"/>
<circle cx="1562.27" cy="558.969" r="1" transform="rotate(-110.939 1562.27 558.969)" fill="white"/>
<circle cx="747.268" cy="541.969" r="1" transform="rotate(-110.939 747.268 541.969)" fill="white"/>
<circle cx="322.843" cy="160.279" r="1" transform="rotate(72.3556 322.843 160.279)" fill="white"/>
<circle cx="495.164" cy="1171.2" r="1" transform="rotate(-28.6278 495.164 1171.2)" fill="white"/>
<circle cx="442.164" cy="459.198" r="1" transform="rotate(-28.6278 442.164 459.198)" fill="white"/>
<circle cx="622.686" cy="260.45" r="1" transform="rotate(154.667 622.686 260.45)" fill="white"/>
<circle cx="1150.71" cy="524.894" r="1" transform="rotate(4.69154 1150.71 524.894)" fill="white"/>
<circle cx="592.865" cy="478.198" r="1" transform="rotate(-28.6278 592.865 478.198)" fill="white"/>
<circle cx="473.326" cy="232.819" r="1" transform="rotate(154.667 473.326 232.819)" fill="white"/>
<circle cx="867.865" cy="828.52" r="1" transform="rotate(-28.6278 867.865 828.52)" fill="white"/>
<circle cx="396.865" cy="884.52" r="1" transform="rotate(-28.6278 396.865 884.52)" fill="white"/>
<circle cx="343.865" cy="172.52" r="1" transform="rotate(-28.6278 343.865 172.52)" fill="white"/>
<circle cx="1226.04" cy="231.345" r="1" transform="rotate(4.69154 1226.04 231.345)" fill="white"/>
<circle cx="953.865" cy="518.198" r="1" transform="rotate(-28.6278 953.865 518.198)" fill="white"/>
<circle cx="115.222" cy="172.137" r="1" transform="rotate(154.667 115.222 172.137)" fill="white"/>
<circle cx="1228.86" cy="868.52" r="1" transform="rotate(-28.6278 1228.86 868.52)" fill="white"/>
<circle cx="757.865" cy="924.52" r="1" transform="rotate(-28.6278 757.865 924.52)" fill="white"/>
<circle cx="704.865" cy="212.52" r="1" transform="rotate(-28.6278 704.865 212.52)" fill="white"/>
<circle cx="346.241" cy="491.621" r="1" transform="rotate(154.667 346.241 491.621)" fill="white"/>
<circle cx="1505.73" cy="463.069" r="1" transform="rotate(4.69154 1505.73 463.069)" fill="white"/>
<circle cx="1339.86" cy="871.198" r="1" transform="rotate(-28.6278 1339.86 871.198)" fill="white"/>
<circle cx="1614.86" cy="1221.52" r="1" transform="rotate(-28.6278 1614.86 1221.52)" fill="white"/>
<circle cx="1746.59" cy="1427.77" r="1" transform="rotate(-28.6278 1746.59 1427.77)" fill="white"/>
<circle cx="940.642" cy="1998.98" r="1" transform="rotate(150.454 940.642 1998.98)" fill="white"/>
<circle cx="931.593" cy="1710.77" r="1" transform="rotate(-28.6278 931.593 1710.77)" fill="white"/>
<circle cx="1751" cy="1702.96" r="1" transform="rotate(150.454 1751 1702.96)" fill="white"/>
<circle cx="1710.81" cy="1324.47" r="1" transform="rotate(52.5443 1710.81 1324.47)" fill="white"/>
<circle cx="884.593" cy="1298.77" r="1" transform="rotate(-28.6278 884.593 1298.77)" fill="white"/>
<circle cx="348.421" cy="198.324" r="1" transform="rotate(-110.939 348.421 198.324)" fill="white"/>
<circle cx="701.279" cy="526.28" r="1" transform="rotate(72.3556 701.279 526.28)" fill="white"/>
<circle cx="1143.86" cy="1277.52" r="1" transform="rotate(-28.6278 1143.86 1277.52)" fill="white"/>
<circle cx="1275.59" cy="1483.77" r="1" transform="rotate(-28.6278 1275.59 1483.77)" fill="white"/>
<circle cx="1410.68" cy="1935.44" r="1" transform="rotate(150.454 1410.68 1935.44)" fill="white"/>
<circle cx="460.593" cy="1766.77" r="1" transform="rotate(-28.6278 460.593 1766.77)" fill="white"/>
<circle cx="413.593" cy="1354.77" r="1" transform="rotate(-28.6278 413.593 1354.77)" fill="white"/>
<circle cx="340.905" cy="672.582" r="1" transform="rotate(-110.939 340.905 672.582)" fill="white"/>
<circle cx="736.042" cy="53.2385" r="1" transform="rotate(72.3556 736.042 53.2385)" fill="white"/>
<circle cx="1746.9" cy="404.582" r="1" transform="rotate(-110.939 1746.9 404.582)" fill="white"/>
<circle cx="931.905" cy="387.582" r="1" transform="rotate(-110.939 931.905 387.582)" fill="white"/>
<circle cx="129.638" cy="303.799" r="1" transform="rotate(72.3556 129.638 303.799)" fill="white"/>
<circle cx="1090.86" cy="565.52" r="1" transform="rotate(-28.6278 1090.86 565.52)" fill="white"/>
<circle cx="1634.37" cy="970.075" r="1" transform="rotate(4.69154 1634.37 970.075)" fill="white"/>
<circle cx="1766.1" cy="1176.33" r="1" transform="rotate(4.69154 1766.1 1176.33)" fill="white"/>
<circle cx="951.101" cy="1459.33" r="1" transform="rotate(4.69154 951.101 1459.33)" fill="white"/>
<circle cx="1735.53" cy="1954.68" r="1" transform="rotate(-176.226 1735.53 1954.68)" fill="white"/>
<circle cx="1962.27" cy="1305.16" r="1" transform="rotate(85.8637 1962.27 1305.16)" fill="white"/>
<circle cx="904.101" cy="1047.33" r="1" transform="rotate(4.69154 904.101 1047.33)" fill="white"/>
<circle cx="101.845" cy="145.351" r="1" transform="rotate(-77.62 101.845 145.351)" fill="white"/>
<circle cx="1816.85" cy="136.351" r="1" transform="rotate(-77.62 1816.85 136.351)" fill="white"/>
<circle cx="1536.86" cy="515.198" r="1" transform="rotate(-28.6278 1536.86 515.198)" fill="white"/>
<circle cx="1811.86" cy="865.52" r="1" transform="rotate(-28.6278 1811.86 865.52)" fill="white"/>
<circle cx="1340.86" cy="921.52" r="1" transform="rotate(-28.6278 1340.86 921.52)" fill="white"/>
<circle cx="1287.86" cy="209.52" r="1" transform="rotate(-28.6278 1287.86 209.52)" fill="white"/>
<circle cx="1994.54" cy="780.806" r="1" transform="rotate(4.69154 1994.54 780.806)" fill="white"/>
<circle cx="1197.86" cy="459.198" r="1" transform="rotate(-28.6278 1197.86 459.198)" fill="white"/>
<circle cx="1472.86" cy="809.52" r="1" transform="rotate(-28.6278 1472.86 809.52)" fill="white"/>
<circle cx="1001.86" cy="865.52" r="1" transform="rotate(-28.6278 1001.86 865.52)" fill="white"/>
<circle cx="948.865" cy="153.52" r="1" transform="rotate(-28.6278 948.865 153.52)" fill="white"/>
<circle cx="1742.03" cy="547.797" r="1" transform="rotate(4.69154 1742.03 547.797)" fill="white"/>
<circle cx="1348.86" cy="396.198" r="1" transform="rotate(-28.6278 1348.86 396.198)" fill="white"/>
<circle cx="1623.86" cy="746.52" r="1" transform="rotate(-28.6278 1623.86 746.52)" fill="white"/>
<circle cx="1152.86" cy="802.52" r="1" transform="rotate(-28.6278 1152.86 802.52)" fill="white"/>
<circle cx="1099.86" cy="90.5202" r="1" transform="rotate(-28.6278 1099.86 90.5202)" fill="white"/>
<circle cx="1902.81" cy="578.098" r="1" transform="rotate(4.69154 1902.81 578.098)" fill="white"/>
<circle cx="741" cy="1334" r="1" fill="white"/>
<circle cx="872.729" cy="1540.25" r="1" fill="white"/>
<circle cx="1812.59" cy="1872.51" r="1" transform="rotate(179.082 1812.59 1872.51)" fill="white"/>
<circle cx="1870.27" cy="1240.13" r="1" transform="rotate(81.1722 1870.27 1240.13)" fill="white"/>
<circle cx="57.7285" cy="1823.25" r="1" fill="white"/>
<circle cx="10.7285" cy="1411.25" r="1" fill="white"/>
<circle cx="342.979" cy="1079.38" r="1" transform="rotate(-82.3116 342.979 1079.38)" fill="white"/>
<circle cx="1748.98" cy="811.382" r="1" transform="rotate(-82.3116 1748.98 811.382)" fill="white"/>
<circle cx="933.979" cy="794.382" r="1" transform="rotate(-82.3116 933.979 794.382)" fill="white"/>
<circle cx="1016" cy="1684.32" r="1" fill="white"/>
<circle cx="1667.03" cy="1730.76" r="1" transform="rotate(179.082 1667.03 1730.76)" fill="white"/>
<circle cx="1749.9" cy="1403.82" r="1" transform="rotate(81.1722 1749.9 1403.82)" fill="white"/>
<circle cx="545" cy="1740.32" r="1" fill="white"/>
<circle cx="492" cy="1028.32" r="1" fill="white"/>
<circle cx="879.729" cy="1027.84" r="1" transform="rotate(33.3194 879.729 1027.84)" fill="white"/>
<circle cx="1011.46" cy="1234.09" r="1" transform="rotate(33.3194 1011.46 1234.09)" fill="white"/>
<circle cx="196.457" cy="1517.09" r="1" transform="rotate(33.3194 196.457 1517.09)" fill="white"/>
<circle cx="149.457" cy="1105.09" r="1" transform="rotate(33.3194 149.457 1105.09)" fill="white"/>
<circle cx="58.1334" cy="900.94" r="1" transform="rotate(-48.9922 58.1334 900.94)" fill="white"/>
<circle cx="1773.13" cy="891.94" r="1" transform="rotate(-48.9922 1773.13 891.94)" fill="white"/>
<circle cx="1464.13" cy="632.94" r="1" transform="rotate(-48.9922 1464.13 632.94)" fill="white"/>
<circle cx="649.133" cy="615.94" r="1" transform="rotate(-48.9922 649.133 615.94)" fill="white"/>
<circle cx="425.067" cy="92.0709" r="1" transform="rotate(134.303 425.067 92.0709)" fill="white"/>
<circle cx="817.479" cy="1517.34" r="1" transform="rotate(20.4808 817.479 1517.34)" fill="white"/>
<circle cx="1868.2" cy="1894.53" r="1" transform="rotate(-160.437 1868.2 1894.53)" fill="white"/>
<circle cx="1884.43" cy="1182.02" r="1" transform="rotate(101.653 1884.43 1182.02)" fill="white"/>
<circle cx="1092.48" cy="1867.67" r="1" transform="rotate(20.4808 1092.48 1867.67)" fill="white"/>
<circle cx="621.479" cy="1923.67" r="1" transform="rotate(20.4808 621.479 1923.67)" fill="white"/>
<circle cx="568.479" cy="1211.67" r="1" transform="rotate(20.4808 568.479 1211.67)" fill="white"/>
<circle cx="842.923" cy="1223.06" r="1" transform="rotate(53.8001 842.923 1223.06)" fill="white"/>
<circle cx="974.652" cy="1429.31" r="1" transform="rotate(53.8001 974.652 1429.31)" fill="white"/>
<circle cx="1712.46" cy="1985.07" r="1" transform="rotate(-127.118 1712.46 1985.07)" fill="white"/>
<circle cx="1995.54" cy="1323.82" r="1" transform="rotate(134.972 1995.54 1323.82)" fill="white"/>
<circle cx="159.652" cy="1712.31" r="1" transform="rotate(53.8001 159.652 1712.31)" fill="white"/>
<circle cx="112.652" cy="1300.31" r="1" transform="rotate(53.8001 112.652 1300.31)" fill="white"/>
<circle cx="246.671" cy="963.532" r="1" transform="rotate(-28.5114 246.671 963.532)" fill="white"/>
<circle cx="1961.67" cy="954.532" r="1" transform="rotate(-28.5114 1961.67 954.532)" fill="white"/>
<circle cx="1652.67" cy="695.532" r="1" transform="rotate(-28.5114 1652.67 695.532)" fill="white"/>
<circle cx="817.356" cy="731.788" r="1" transform="rotate(-28.5114 817.356 731.788)" fill="white"/>
<circle cx="755.213" cy="1851.82" r="1" transform="rotate(-53.9622 755.213 1851.82)" fill="white"/>
<circle cx="459.811" cy="1336.62" r="1" transform="rotate(-28.6278 459.811 1336.62)" fill="white"/>
<circle cx="734.811" cy="1686.94" r="1" transform="rotate(-28.6278 734.811 1686.94)" fill="white"/>
<circle cx="1948.14" cy="1723.64" r="1" transform="rotate(150.454 1948.14 1723.64)" fill="white"/>
<circle cx="1704.16" cy="1126.36" r="1" transform="rotate(52.5443 1704.16 1126.36)" fill="white"/>
<circle cx="263.811" cy="1742.94" r="1" transform="rotate(-28.6278 263.811 1742.94)" fill="white"/>
<circle cx="210.811" cy="1030.94" r="1" transform="rotate(-28.6278 210.811 1030.94)" fill="white"/>
<circle cx="643.324" cy="875.57" r="1" transform="rotate(4.69154 643.324 875.57)" fill="white"/>
<circle cx="361.512" cy="1049.94" r="1" transform="rotate(-28.6278 361.512 1049.94)" fill="white"/>
<circle cx="636.512" cy="1400.26" r="1" transform="rotate(-28.6278 636.512 1400.26)" fill="white"/>
<circle cx="165.512" cy="1456.26" r="1" transform="rotate(-28.6278 165.512 1456.26)" fill="white"/>
<circle cx="112.512" cy="744.26" r="1" transform="rotate(-28.6278 112.512 744.26)" fill="white"/>
<circle cx="718.657" cy="582.019" r="1" transform="rotate(4.69154 718.657 582.019)" fill="white"/>
<circle cx="353.709" cy="121.94" r="1" transform="rotate(-172.013 353.709 121.94)" fill="white"/>
<circle cx="722.512" cy="1089.94" r="1" transform="rotate(-28.6278 722.512 1089.94)" fill="white"/>
<circle cx="854.241" cy="1296.19" r="1" transform="rotate(-28.6278 854.241 1296.19)" fill="white"/>
<circle cx="39.2407" cy="1579.19" r="1" transform="rotate(-28.6278 39.2407 1579.19)" fill="white"/>
<circle cx="98.6371" cy="1065.05" r="1" transform="rotate(-110.939 98.6371 1065.05)" fill="white"/>
<circle cx="1813.64" cy="1056.05" r="1" transform="rotate(-110.939 1813.64 1056.05)" fill="white"/>
<circle cx="1504.64" cy="797.051" r="1" transform="rotate(-110.939 1504.64 797.051)" fill="white"/>
<circle cx="689.637" cy="780.051" r="1" transform="rotate(-110.939 689.637 780.051)" fill="white"/>
<circle cx="997.512" cy="1440.26" r="1" transform="rotate(-28.6278 997.512 1440.26)" fill="white"/>
<circle cx="1689.43" cy="1974.49" r="1" transform="rotate(150.454 1689.43 1974.49)" fill="white"/>
<circle cx="1988.23" cy="1348.09" r="1" transform="rotate(52.5443 1988.23 1348.09)" fill="white"/>
<circle cx="1129.24" cy="1646.51" r="1" transform="rotate(-28.6278 1129.24 1646.51)" fill="white"/>
<circle cx="1554.41" cy="1770.38" r="1" transform="rotate(150.454 1554.41 1770.38)" fill="white"/>
<circle cx="1804.64" cy="1509.91" r="1" transform="rotate(52.5443 1804.64 1509.91)" fill="white"/>
<circle cx="314.241" cy="1929.51" r="1" transform="rotate(-28.6278 314.241 1929.51)" fill="white"/>
<circle cx="267.241" cy="1517.51" r="1" transform="rotate(-28.6278 267.241 1517.51)" fill="white"/>
<circle cx="482.601" cy="839.391" r="1" transform="rotate(-110.939 482.601 839.391)" fill="white"/>
<circle cx="1888.6" cy="571.391" r="1" transform="rotate(-110.939 1888.6 571.391)" fill="white"/>
<circle cx="1073.6" cy="554.391" r="1" transform="rotate(-110.939 1073.6 554.391)" fill="white"/>
<circle cx="526.512" cy="1496.26" r="1" transform="rotate(-28.6278 526.512 1496.26)" fill="white"/>
<circle cx="473.512" cy="784.26" r="1" transform="rotate(-28.6278 473.512 784.26)" fill="white"/>
<circle cx="998.345" cy="813.743" r="1" transform="rotate(4.69154 998.345 813.743)" fill="white"/>
<circle cx="1108.51" cy="1442.94" r="1" transform="rotate(-28.6278 1108.51 1442.94)" fill="white"/>
<circle cx="1578.4" cy="1973.59" r="1" transform="rotate(150.454 1578.4 1973.59)" fill="white"/>
<circle cx="1240.24" cy="1649.19" r="1" transform="rotate(-28.6278 1240.24 1649.19)" fill="white"/>
<circle cx="1443.38" cy="1769.48" r="1" transform="rotate(150.454 1443.38 1769.48)" fill="white"/>
<circle cx="425.241" cy="1932.19" r="1" transform="rotate(-28.6278 425.241 1932.19)" fill="white"/>
<circle cx="378.241" cy="1520.19" r="1" transform="rotate(-28.6278 378.241 1520.19)" fill="white"/>
<circle cx="500.105" cy="729.747" r="1" transform="rotate(-110.939 500.105 729.747)" fill="white"/>
<circle cx="1906.1" cy="461.747" r="1" transform="rotate(-110.939 1906.1 461.747)" fill="white"/>
<circle cx="1091.1" cy="444.747" r="1" transform="rotate(-110.939 1091.1 444.747)" fill="white"/>
<circle cx="1383.51" cy="1793.26" r="1" transform="rotate(-28.6278 1383.51 1793.26)" fill="white"/>
<circle cx="1297.82" cy="1627.72" r="1" transform="rotate(150.454 1297.82 1627.72)" fill="white"/>
<circle cx="912.512" cy="1849.26" r="1" transform="rotate(-28.6278 912.512 1849.26)" fill="white"/>
<circle cx="859.512" cy="1137.26" r="1" transform="rotate(-28.6278 859.512 1137.26)" fill="white"/>
<circle cx="991.241" cy="1343.51" r="1" transform="rotate(-28.6278 991.241 1343.51)" fill="white"/>
<circle cx="176.241" cy="1626.51" r="1" transform="rotate(-28.6278 176.241 1626.51)" fill="white"/>
<circle cx="129.241" cy="1214.51" r="1" transform="rotate(-28.6278 129.241 1214.51)" fill="white"/>
<circle cx="163.863" cy="935.613" r="1" transform="rotate(-110.939 163.863 935.613)" fill="white"/>
<circle cx="1878.86" cy="926.613" r="1" transform="rotate(-110.939 1878.86 926.613)" fill="white"/>
<circle cx="1569.86" cy="667.613" r="1" transform="rotate(-110.939 1569.86 667.613)" fill="white"/>
<circle cx="754.863" cy="650.613" r="1" transform="rotate(-110.939 754.863 650.613)" fill="white"/>
<circle cx="321.505" cy="51.3781" r="1" transform="rotate(72.3556 321.505 51.3781)" fill="white"/>
<circle cx="1126.99" cy="1320.75" r="1" transform="rotate(4.69154 1126.99 1320.75)" fill="white"/>
<circle cx="1258.72" cy="1527" r="1" transform="rotate(4.69154 1258.72 1527)" fill="white"/>
<circle cx="1426.87" cy="1891.95" r="1" transform="rotate(-176.226 1426.87 1891.95)" fill="white"/>
<circle cx="443.718" cy="1810" r="1" transform="rotate(4.69154 443.718 1810)" fill="white"/>
<circle cx="396.718" cy="1398" r="1" transform="rotate(4.69154 396.718 1398)" fill="white"/>
<circle cx="381.488" cy="695.09" r="1" transform="rotate(-77.62 381.488 695.09)" fill="white"/>
<circle cx="696.82" cy="28.4358" r="1" transform="rotate(105.675 696.82 28.4358)" fill="white"/>
<circle cx="1787.49" cy="427.09" r="1" transform="rotate(-77.62 1787.49 427.09)" fill="white"/>
<circle cx="972.488" cy="410.09" r="1" transform="rotate(-77.62 972.488 410.09)" fill="white"/>
<circle cx="90.4155" cy="278.996" r="1" transform="rotate(105.675 90.4155 278.996)" fill="white"/>
<circle cx="1305.51" cy="1086.94" r="1" transform="rotate(-28.6278 1305.51 1086.94)" fill="white"/>
<circle cx="1437.24" cy="1293.19" r="1" transform="rotate(-28.6278 1437.24 1293.19)" fill="white"/>
<circle cx="622.241" cy="1576.19" r="1" transform="rotate(-28.6278 622.241 1576.19)" fill="white"/>
<circle cx="575.241" cy="1164.19" r="1" transform="rotate(-28.6278 575.241 1164.19)" fill="white"/>
<circle cx="173.662" cy="486.891" r="1" transform="rotate(-110.939 173.662 486.891)" fill="white"/>
<circle cx="1888.66" cy="477.891" r="1" transform="rotate(-110.939 1888.66 477.891)" fill="white"/>
<circle cx="1579.66" cy="218.891" r="1" transform="rotate(-110.939 1579.66 218.891)" fill="white"/>
<circle cx="764.662" cy="201.891" r="1" transform="rotate(-110.939 764.662 201.891)" fill="white"/>
<circle cx="285.932" cy="498.796" r="1" transform="rotate(72.3556 285.932 498.796)" fill="white"/>
<circle cx="1580.51" cy="1437.26" r="1" transform="rotate(-28.6278 1580.51 1437.26)" fill="white"/>
<circle cx="1106.55" cy="1986.83" r="1" transform="rotate(150.454 1106.55 1986.83)" fill="white"/>
<circle cx="1712.24" cy="1643.51" r="1" transform="rotate(-28.6278 1712.24 1643.51)" fill="white"/>
<circle cx="1657.26" cy="1371.04" r="1" transform="rotate(-126.538 1657.26 1371.04)" fill="white"/>
<circle cx="971.534" cy="1782.72" r="1" transform="rotate(150.454 971.534 1782.72)" fill="white"/>
<circle cx="897.241" cy="1926.51" r="1" transform="rotate(-28.6278 897.241 1926.51)" fill="white"/>
<circle cx="850.241" cy="1514.51" r="1" transform="rotate(-28.6278 850.241 1514.51)" fill="white"/>
<circle cx="1835.49" cy="1897.89" r="1" transform="rotate(150.454 1835.49 1897.89)" fill="white"/>
<circle cx="1892.26" cy="1213.96" r="1" transform="rotate(52.5443 1892.26 1213.96)" fill="white"/>
<circle cx="557.625" cy="261.231" r="1" transform="rotate(-110.939 557.625 261.231)" fill="white"/>
<circle cx="496.037" cy="451.453" r="1" transform="rotate(72.3556 496.037 451.453)" fill="white"/>
<circle cx="1109.51" cy="1493.26" r="1" transform="rotate(-28.6278 1109.51 1493.26)" fill="white"/>
<circle cx="1576.59" cy="1923.29" r="1" transform="rotate(150.454 1576.59 1923.29)" fill="white"/>
<circle cx="1953.05" cy="1466.9" r="1" transform="rotate(52.5443 1953.05 1466.9)" fill="white"/>
<circle cx="1241.24" cy="1699.51" r="1" transform="rotate(-28.6278 1241.24 1699.51)" fill="white"/>
<circle cx="1441.58" cy="1719.18" r="1" transform="rotate(150.454 1441.58 1719.18)" fill="white"/>
<circle cx="426.241" cy="1982.51" r="1" transform="rotate(-28.6278 426.241 1982.51)" fill="white"/>
<circle cx="379.241" cy="1570.51" r="1" transform="rotate(-28.6278 379.241 1570.51)" fill="white"/>
<circle cx="550.109" cy="735.489" r="1" transform="rotate(-110.939 550.109 735.489)" fill="white"/>
<circle cx="1956.11" cy="467.489" r="1" transform="rotate(-110.939 1956.11 467.489)" fill="white"/>
<circle cx="1141.11" cy="450.489" r="1" transform="rotate(-110.939 1141.11 450.489)" fill="white"/>
<circle cx="1056.51" cy="781.26" r="1" transform="rotate(-28.6278 1056.51 781.26)" fill="white"/>
<circle cx="1487.16" cy="1131.48" r="1" transform="rotate(4.69154 1487.16 1131.48)" fill="white"/>
<circle cx="1618.89" cy="1337.73" r="1" transform="rotate(4.69154 1618.89 1337.73)" fill="white"/>
<circle cx="803.888" cy="1620.73" r="1" transform="rotate(4.69154 803.888 1620.73)" fill="white"/>
<circle cx="1880.13" cy="1790.94" r="1" transform="rotate(-176.226 1880.13 1790.94)" fill="white"/>
<circle cx="1780.18" cy="1184.46" r="1" transform="rotate(85.8637 1780.18 1184.46)" fill="white"/>
<circle cx="756.888" cy="1208.73" r="1" transform="rotate(4.69154 756.888 1208.73)" fill="white"/>
<circle cx="242.107" cy="312.835" r="1" transform="rotate(-77.62 242.107 312.835)" fill="white"/>
<circle cx="813.999" cy="418.069" r="1" transform="rotate(105.675 813.999 418.069)" fill="white"/>
<circle cx="1957.11" cy="303.835" r="1" transform="rotate(-77.62 1957.11 303.835)" fill="white"/>
<circle cx="1648.11" cy="44.8353" r="1" transform="rotate(-77.62 1648.11 44.8353)" fill="white"/>
<circle cx="833.107" cy="27.8353" r="1" transform="rotate(-77.62 833.107 27.8353)" fill="white"/>
<circle cx="966.512" cy="1030.94" r="1" transform="rotate(-28.6278 966.512 1030.94)" fill="white"/>
<circle cx="1098.24" cy="1237.19" r="1" transform="rotate(-28.6278 1098.24 1237.19)" fill="white"/>
<circle cx="283.241" cy="1520.19" r="1" transform="rotate(-28.6278 283.241 1520.19)" fill="white"/>
<circle cx="236.241" cy="1108.19" r="1" transform="rotate(-28.6278 236.241 1108.19)" fill="white"/>
<circle cx="72.8119" cy="815.351" r="1" transform="rotate(-110.939 72.8119 815.351)" fill="white"/>
<circle cx="1787.81" cy="806.351" r="1" transform="rotate(-110.939 1787.81 806.351)" fill="white"/>
<circle cx="1478.81" cy="547.351" r="1" transform="rotate(-110.939 1478.81 547.351)" fill="white"/>
<circle cx="663.812" cy="530.351" r="1" transform="rotate(-110.939 663.812 530.351)" fill="white"/>
<circle cx="405.494" cy="176.675" r="1" transform="rotate(72.3556 405.494 176.675)" fill="white"/>
<circle cx="1241.51" cy="1381.26" r="1" transform="rotate(-28.6278 1241.51 1381.26)" fill="white"/>
<circle cx="1373.24" cy="1587.51" r="1" transform="rotate(-28.6278 1373.24 1587.51)" fill="white"/>
<circle cx="1311.39" cy="1833.28" r="1" transform="rotate(150.454 1311.39 1833.28)" fill="white"/>
<circle cx="558.241" cy="1870.51" r="1" transform="rotate(-28.6278 558.241 1870.51)" fill="white"/>
<circle cx="511.241" cy="1458.51" r="1" transform="rotate(-28.6278 511.241 1458.51)" fill="white"/>
<circle cx="456.776" cy="589.692" r="1" transform="rotate(-110.939 456.776 589.692)" fill="white"/>
<circle cx="615.598" cy="129.332" r="1" transform="rotate(72.3556 615.598 129.332)" fill="white"/>
<circle cx="1862.78" cy="321.692" r="1" transform="rotate(-110.939 1862.78 321.692)" fill="white"/>
<circle cx="1047.78" cy="304.692" r="1" transform="rotate(-110.939 1047.78 304.692)" fill="white"/>
<circle cx="9.1939" cy="379.893" r="1" transform="rotate(72.3556 9.1939 379.893)" fill="white"/>
<circle cx="770.512" cy="1437.26" r="1" transform="rotate(-28.6278 770.512 1437.26)" fill="white"/>
<circle cx="1916.45" cy="1973.86" r="1" transform="rotate(150.454 1916.45 1973.86)" fill="white"/>
<circle cx="1956.36" cy="1123.32" r="1" transform="rotate(52.5443 1956.36 1123.32)" fill="white"/>
<circle cx="902.241" cy="1643.51" r="1" transform="rotate(-28.6278 902.241 1643.51)" fill="white"/>
<circle cx="1781.43" cy="1769.74" r="1" transform="rotate(150.454 1781.43 1769.74)" fill="white"/>
<circle cx="1772.76" cy="1285.14" r="1" transform="rotate(52.5443 1772.76 1285.14)" fill="white"/>
<circle cx="87.2407" cy="1926.51" r="1" transform="rotate(-28.6278 87.2407 1926.51)" fill="white"/>
<circle cx="40.2407" cy="1514.51" r="1" transform="rotate(-28.6278 40.2407 1514.51)" fill="white"/>
<circle cx="449.259" cy="1063.95" r="1" transform="rotate(-110.939 449.259 1063.95)" fill="white"/>
<circle cx="1855.26" cy="795.949" r="1" transform="rotate(-110.939 1855.26 795.949)" fill="white"/>
<circle cx="1040.26" cy="778.949" r="1" transform="rotate(-110.939 1040.26 778.949)" fill="white"/>
<circle cx="717.512" cy="725.26" r="1" transform="rotate(-28.6278 717.512 725.26)" fill="white"/>
<circle cx="1234.65" cy="898.472" r="1" transform="rotate(4.69154 1234.65 898.472)" fill="white"/>
<circle cx="1117.51" cy="967.938" r="1" transform="rotate(-28.6278 1117.51 967.938)" fill="white"/>
<circle cx="1249.24" cy="1174.19" r="1" transform="rotate(-28.6278 1249.24 1174.19)" fill="white"/>
<circle cx="434.241" cy="1457.19" r="1" transform="rotate(-28.6278 434.241 1457.19)" fill="white"/>
<circle cx="387.241" cy="1045.19" r="1" transform="rotate(-28.6278 387.241 1045.19)" fill="white"/>
<circle cx="30.5795" cy="657.28" r="1" transform="rotate(-110.939 30.5795 657.28)" fill="white"/>
<circle cx="1745.58" cy="648.28" r="1" transform="rotate(-110.939 1745.58 648.28)" fill="white"/>
<circle cx="1436.58" cy="389.28" r="1" transform="rotate(-110.939 1436.58 389.28)" fill="white"/>
<circle cx="621.58" cy="372.28" r="1" transform="rotate(-110.939 621.58 372.28)" fill="white"/>
<circle cx="438.571" cy="336.912" r="1" transform="rotate(72.3556 438.571 336.912)" fill="white"/>
<circle cx="1392.51" cy="1318.26" r="1" transform="rotate(-28.6278 1392.51 1318.26)" fill="white"/>
<circle cx="1524.24" cy="1524.51" r="1" transform="rotate(-28.6278 1524.24 1524.51)" fill="white"/>
<circle cx="1565.26" cy="1573.63" r="1" transform="rotate(-126.538 1565.26 1573.63)" fill="white"/>
<circle cx="1161.42" cy="1898.69" r="1" transform="rotate(150.454 1161.42 1898.69)" fill="white"/>
<circle cx="709.241" cy="1807.51" r="1" transform="rotate(-28.6278 709.241 1807.51)" fill="white"/>
<circle cx="1971.78" cy="1602.67" r="1" transform="rotate(150.454 1971.78 1602.67)" fill="white"/>
<circle cx="1581.09" cy="1119.6" r="1" transform="rotate(52.5443 1581.09 1119.6)" fill="white"/>
<circle cx="662.241" cy="1395.51" r="1" transform="rotate(-28.6278 662.241 1395.51)" fill="white"/>
<circle cx="414.543" cy="431.62" r="1" transform="rotate(-110.939 414.543 431.62)" fill="white"/>
<circle cx="648.675" cy="289.57" r="1" transform="rotate(72.3556 648.675 289.57)" fill="white"/>
<circle cx="1820.54" cy="163.62" r="1" transform="rotate(-110.939 1820.54 163.62)" fill="white"/>
<circle cx="1005.54" cy="146.62" r="1" transform="rotate(-110.939 1005.54 146.62)" fill="white"/>
<circle cx="921.512" cy="1374.26" r="1" transform="rotate(-28.6278 921.512 1374.26)" fill="white"/>
<circle cx="1053.24" cy="1580.51" r="1" transform="rotate(-28.6278 1053.24 1580.51)" fill="white"/>
<circle cx="1631.46" cy="1835.15" r="1" transform="rotate(150.454 1631.46 1835.15)" fill="white"/>
<circle cx="1858.19" cy="1424.68" r="1" transform="rotate(52.5443 1858.19 1424.68)" fill="white"/>
<circle cx="238.241" cy="1863.51" r="1" transform="rotate(-28.6278 238.241 1863.51)" fill="white"/>
<circle cx="191.241" cy="1451.51" r="1" transform="rotate(-28.6278 191.241 1451.51)" fill="white"/>
<circle cx="407.027" cy="905.878" r="1" transform="rotate(-110.939 407.027 905.878)" fill="white"/>
<circle cx="1813.03" cy="637.878" r="1" transform="rotate(-110.939 1813.03 637.878)" fill="white"/>
<circle cx="998.027" cy="620.878" r="1" transform="rotate(-110.939 998.027 620.878)" fill="white"/>
<circle cx="77.0347" cy="67.0881" r="1" transform="rotate(72.3556 77.0347 67.0881)" fill="white"/>
<circle cx="868.512" cy="662.26" r="1" transform="rotate(-28.6278 868.512 662.26)" fill="white"/>
<circle cx="208.713" cy="33.2189" r="1" transform="rotate(154.667 208.713 33.2189)" fill="white"/>
<circle cx="1395.43" cy="928.773" r="1" transform="rotate(4.69154 1395.43 928.773)" fill="white"/>
<circle cx="1303" cy="1405" r="1" fill="white"/>
<circle cx="1434.73" cy="1611.25" r="1" fill="white"/>
<circle cx="1249.53" cy="1810.53" r="1" transform="rotate(179.082 1249.53 1810.53)" fill="white"/>
<circle cx="619.729" cy="1894.25" r="1" fill="white"/>
<circle cx="572.729" cy="1482.25" r="1" fill="white"/>
<circle cx="488.528" cy="531.932" r="1" transform="rotate(-82.3116 488.528 531.932)" fill="white"/>
<circle cx="580.579" cy="185.171" r="1" transform="rotate(100.983 580.579 185.171)" fill="white"/>
<circle cx="1894.53" cy="263.932" r="1" transform="rotate(-82.3116 1894.53 263.932)" fill="white"/>
<circle cx="1079.53" cy="246.932" r="1" transform="rotate(-82.3116 1079.53 246.932)" fill="white"/>
<circle cx="1578" cy="1755.32" r="1" fill="white"/>
<circle cx="1786.48" cy="1488.62" r="1" transform="rotate(-97.9098 1786.48 1488.62)" fill="white"/>
<circle cx="1103.97" cy="1668.77" r="1" transform="rotate(179.082 1103.97 1668.77)" fill="white"/>
<circle cx="1107" cy="1811.32" r="1" fill="white"/>
<circle cx="1054" cy="1099.32" r="1" fill="white"/>
<circle cx="1185.73" cy="1305.57" r="1" fill="white"/>
<circle cx="370.729" cy="1588.57" r="1" fill="white"/>
<circle cx="323.729" cy="1176.57" r="1" fill="white"/>
<circle cx="152.286" cy="737.799" r="1" transform="rotate(-82.3116 152.286 737.799)" fill="white"/>
<circle cx="1867.29" cy="728.799" r="1" transform="rotate(-82.3116 1867.29 728.799)" fill="white"/>
<circle cx="1558.29" cy="469.799" r="1" transform="rotate(-82.3116 1558.29 469.799)" fill="white"/>
<circle cx="743.286" cy="452.799" r="1" transform="rotate(-82.3116 743.286 452.799)" fill="white"/>
<circle cx="321.694" cy="249.531" r="1" transform="rotate(100.983 321.694 249.531)" fill="white"/>
<circle cx="1310.35" cy="1395.88" r="1" transform="rotate(33.3194 1310.35 1395.88)" fill="white"/>
<circle cx="1442.08" cy="1602.13" r="1" transform="rotate(33.3194 1442.08 1602.13)" fill="white"/>
<circle cx="1242.33" cy="1819.76" r="1" transform="rotate(-147.599 1242.33 1819.76)" fill="white"/>
<circle cx="627.075" cy="1885.13" r="1" transform="rotate(33.3194 627.075 1885.13)" fill="white"/>
<circle cx="580.075" cy="1473.13" r="1" transform="rotate(33.3194 580.075 1473.13)" fill="white"/>
<circle cx="480.475" cy="523.432" r="1" transform="rotate(-48.9922 480.475 523.432)" fill="white"/>
<circle cx="588.13" cy="194.12" r="1" transform="rotate(134.303 588.13 194.12)" fill="white"/>
<circle cx="1886.48" cy="255.432" r="1" transform="rotate(-48.9922 1886.48 255.432)" fill="white"/>
<circle cx="1071.48" cy="238.432" r="1" transform="rotate(-48.9922 1071.48 238.432)" fill="white"/>
<circle cx="1319.11" cy="1780.5" r="1" transform="rotate(20.4808 1319.11 1780.5)" fill="white"/>
<circle cx="1362.42" cy="1639.45" r="1" transform="rotate(-160.437 1362.42 1639.45)" fill="white"/>
<circle cx="1143.26" cy="1439.14" r="1" transform="rotate(-53.9622 1143.26 1439.14)" fill="white"/>
<circle cx="1543.71" cy="1977.95" r="1" transform="rotate(125.12 1543.71 1977.95)" fill="white"/>
<circle cx="1274.99" cy="1645.39" r="1" transform="rotate(-53.9622 1274.99 1645.39)" fill="white"/>
<circle cx="1408.7" cy="1773.83" r="1" transform="rotate(125.12 1408.7 1773.83)" fill="white"/>
<circle cx="459.991" cy="1928.39" r="1" transform="rotate(-53.9622 459.991 1928.39)" fill="white"/>
<circle cx="412.991" cy="1516.39" r="1" transform="rotate(-53.9622 412.991 1516.39)" fill="white"/>
<circle cx="500.989" cy="694.801" r="1" transform="rotate(-136.274 500.989 694.801)" fill="white"/>
<circle cx="577.499" cy="21.8547" r="1" transform="rotate(47.0212 577.499 21.8547)" fill="white"/>
<circle cx="1906.99" cy="426.801" r="1" transform="rotate(-136.274 1906.99 426.801)" fill="white"/>
<circle cx="1091.99" cy="409.801" r="1" transform="rotate(-136.274 1091.99 409.801)" fill="white"/>
<circle cx="1418.26" cy="1789.46" r="1" transform="rotate(-53.9622 1418.26 1789.46)" fill="white"/>
<circle cx="1263.14" cy="1632.08" r="1" transform="rotate(125.12 1263.14 1632.08)" fill="white"/>
<circle cx="947.262" cy="1845.46" r="1" transform="rotate(-53.9622 947.262 1845.46)" fill="white"/>
<circle cx="894.262" cy="1133.46" r="1" transform="rotate(-53.9622 894.262 1133.46)" fill="white"/>
<circle cx="1025.99" cy="1339.71" r="1" transform="rotate(-53.9622 1025.99 1339.71)" fill="white"/>
<circle cx="210.991" cy="1622.71" r="1" transform="rotate(-53.9622 210.991 1622.71)" fill="white"/>
<circle cx="163.991" cy="1210.71" r="1" transform="rotate(-53.9622 163.991 1210.71)" fill="white"/>
<circle cx="164.747" cy="900.668" r="1" transform="rotate(-136.274 164.747 900.668)" fill="white"/>
<circle cx="1879.75" cy="891.668" r="1" transform="rotate(-136.274 1879.75 891.668)" fill="white"/>
<circle cx="1570.75" cy="632.668" r="1" transform="rotate(-136.274 1570.75 632.668)" fill="white"/>
<circle cx="755.747" cy="615.668" r="1" transform="rotate(-136.274 755.747 615.668)" fill="white"/>
<circle cx="318.614" cy="86.2151" r="1" transform="rotate(47.0212 318.614 86.2151)" fill="white"/>
<circle cx="1158.11" cy="1336.66" r="1" transform="rotate(-20.6428 1158.11 1336.66)" fill="white"/>
<circle cx="1289.84" cy="1542.92" r="1" transform="rotate(-20.6428 1289.84 1542.92)" fill="white"/>
<circle cx="1395.49" cy="1876.53" r="1" transform="rotate(158.439 1395.49 1876.53)" fill="white"/>
<circle cx="474.843" cy="1825.92" r="1" transform="rotate(-20.6428 474.843 1825.92)" fill="white"/>
<circle cx="427.843" cy="1413.92" r="1" transform="rotate(-20.6428 427.843 1413.92)" fill="white"/>
<circle cx="401.422" cy="666.373" r="1" transform="rotate(-102.954 401.422 666.373)" fill="white"/>
<circle cx="675.268" cy="55.9588" r="1" transform="rotate(80.3406 675.268 55.9588)" fill="white"/>
<circle cx="1807.42" cy="398.373" r="1" transform="rotate(-102.954 1807.42 398.373)" fill="white"/>
<circle cx="992.422" cy="381.373" r="1" transform="rotate(-102.954 992.422 381.373)" fill="white"/>
<circle cx="68.8636" cy="306.519" r="1" transform="rotate(80.3406 68.8636 306.519)" fill="white"/>
<circle cx="987.124" cy="1129.67" r="1" transform="rotate(-28.6278 987.124 1129.67)" fill="white"/>
<circle cx="1118.85" cy="1335.92" r="1" transform="rotate(-28.6278 1118.85 1335.92)" fill="white"/>
<circle cx="303.853" cy="1618.92" r="1" transform="rotate(-28.6278 303.853 1618.92)" fill="white"/>
<circle cx="256.853" cy="1206.92" r="1" transform="rotate(-28.6278 256.853 1206.92)" fill="white"/>
<circle cx="173.414" cy="808.133" r="1" transform="rotate(-110.939 173.414 808.133)" fill="white"/>
<circle cx="1888.41" cy="799.133" r="1" transform="rotate(-110.939 1888.41 799.133)" fill="white"/>
<circle cx="1579.41" cy="540.133" r="1" transform="rotate(-110.939 1579.41 540.133)" fill="white"/>
<circle cx="764.414" cy="523.133" r="1" transform="rotate(-110.939 764.414 523.133)" fill="white"/>
<circle cx="304.642" cy="178.099" r="1" transform="rotate(72.3556 304.642 178.099)" fill="white"/>
<circle cx="1262.12" cy="1479.99" r="1" transform="rotate(-28.6278 1262.12 1479.99)" fill="white"/>
<circle cx="1424.21" cy="1939" r="1" transform="rotate(150.454 1424.21 1939)" fill="white"/>
<circle cx="1393.85" cy="1686.25" r="1" transform="rotate(-28.6278 1393.85 1686.25)" fill="white"/>
<circle cx="1289.2" cy="1734.89" r="1" transform="rotate(150.454 1289.2 1734.89)" fill="white"/>
<circle cx="578.853" cy="1969.25" r="1" transform="rotate(-28.6278 578.853 1969.25)" fill="white"/>
<circle cx="531.853" cy="1557.25" r="1" transform="rotate(-28.6278 531.853 1557.25)" fill="white"/>
<circle cx="557.379" cy="582.474" r="1" transform="rotate(-110.939 557.379 582.474)" fill="white"/>
<circle cx="514.746" cy="130.756" r="1" transform="rotate(72.3556 514.746 130.756)" fill="white"/>
<circle cx="1963.38" cy="314.474" r="1" transform="rotate(-110.939 1963.38 314.474)" fill="white"/>
<circle cx="1148.38" cy="297.474" r="1" transform="rotate(-110.939 1148.38 297.474)" fill="white"/>
<circle cx="791.124" cy="1535.99" r="1" transform="rotate(-28.6278 791.124 1535.99)" fill="white"/>
<circle cx="1894.25" cy="1875.46" r="1" transform="rotate(150.454 1894.25 1875.46)" fill="white"/>
<circle cx="1861.96" cy="1158.84" r="1" transform="rotate(52.5443 1861.96 1158.84)" fill="white"/>
<circle cx="738.124" cy="823.993" r="1" transform="rotate(-28.6278 738.124 823.993)" fill="white"/>
<circle cx="1197.63" cy="992.298" r="1" transform="rotate(4.69154 1197.63 992.298)" fill="white"/>
<circle cx="1329.36" cy="1198.55" r="1" transform="rotate(4.69154 1329.36 1198.55)" fill="white"/>
<circle cx="514.363" cy="1481.55" r="1" transform="rotate(4.69154 514.363 1481.55)" fill="white"/>
<circle cx="467.363" cy="1069.55" r="1" transform="rotate(4.69154 467.363 1069.55)" fill="white"/>
<circle cx="65.4402" cy="581.137" r="1" transform="rotate(-77.62 65.4402 581.137)" fill="white"/>
<circle cx="1780.44" cy="572.137" r="1" transform="rotate(-77.62 1780.44 572.137)" fill="white"/>
<circle cx="1471.44" cy="313.137" r="1" transform="rotate(-77.62 1471.44 313.137)" fill="white"/>
<circle cx="656.44" cy="296.137" r="1" transform="rotate(-77.62 656.44 296.137)" fill="white"/>
<circle cx="399.391" cy="410.926" r="1" transform="rotate(105.675 399.391 410.926)" fill="white"/>
<circle cx="888.826" cy="842.993" r="1" transform="rotate(-28.6278 888.826 842.993)" fill="white"/>
<circle cx="1163.83" cy="1193.32" r="1" transform="rotate(-28.6278 1163.83 1193.32)" fill="white"/>
<circle cx="1295.55" cy="1399.57" r="1" transform="rotate(-28.6278 1295.55 1399.57)" fill="white"/>
<circle cx="480.554" cy="1682.57" r="1" transform="rotate(-28.6278 480.554 1682.57)" fill="white"/>
<circle cx="433.554" cy="1270.57" r="1" transform="rotate(-28.6278 433.554 1270.57)" fill="white"/>
<circle cx="260.127" cy="641.535" r="1" transform="rotate(-110.939 260.127 641.535)" fill="white"/>
<circle cx="814.901" cy="88.8767" r="1" transform="rotate(72.3556 814.901 88.8767)" fill="white"/>
<circle cx="1975.13" cy="632.535" r="1" transform="rotate(-110.939 1975.13 632.535)" fill="white"/>
<circle cx="1666.13" cy="373.535" r="1" transform="rotate(-110.939 1666.13 373.535)" fill="white"/>
<circle cx="851.127" cy="356.535" r="1" transform="rotate(-110.939 851.127 356.535)" fill="white"/>
<circle cx="208.498" cy="339.437" r="1" transform="rotate(72.3556 208.498 339.437)" fill="white"/>
<circle cx="692.826" cy="1249.32" r="1" transform="rotate(-28.6278 692.826 1249.32)" fill="white"/>
<circle cx="639.826" cy="537.316" r="1" transform="rotate(-28.6278 639.826 537.316)" fill="white"/>
<circle cx="429.84" cy="171.101" r="1" transform="rotate(154.667 429.84 171.101)" fill="white"/>
<circle cx="1272.97" cy="698.748" r="1" transform="rotate(4.69154 1272.97 698.748)" fill="white"/>
<circle cx="1249.83" cy="882.993" r="1" transform="rotate(-28.6278 1249.83 882.993)" fill="white"/>
<circle cx="1524.83" cy="1233.32" r="1" transform="rotate(-28.6278 1524.83 1233.32)" fill="white"/>
<circle cx="1656.55" cy="1439.57" r="1" transform="rotate(-28.6278 1656.55 1439.57)" fill="white"/>
<circle cx="1030.48" cy="1985.74" r="1" transform="rotate(150.454 1030.48 1985.74)" fill="white"/>
<circle cx="841.554" cy="1722.57" r="1" transform="rotate(-28.6278 841.554 1722.57)" fill="white"/>
<circle cx="1840.84" cy="1689.72" r="1" transform="rotate(150.454 1840.84 1689.72)" fill="white"/>
<circle cx="1685.33" cy="1237.31" r="1" transform="rotate(52.5443 1685.33 1237.31)" fill="white"/>
<circle cx="794.554" cy="1310.57" r="1" transform="rotate(-28.6278 794.554 1310.57)" fill="white"/>
<circle cx="348.065" cy="289.132" r="1" transform="rotate(-110.939 348.065 289.132)" fill="white"/>
<circle cx="706.854" cy="435.643" r="1" transform="rotate(72.3556 706.854 435.643)" fill="white"/>
<circle cx="1754.06" cy="21.132" r="1" transform="rotate(-110.939 1754.06 21.132)" fill="white"/>
<circle cx="939.065" cy="4.132" r="1" transform="rotate(-110.939 939.065 4.132)" fill="white"/>
<circle cx="1053.83" cy="1289.32" r="1" transform="rotate(-28.6278 1053.83 1289.32)" fill="white"/>
<circle cx="1185.55" cy="1495.57" r="1" transform="rotate(-28.6278 1185.55 1495.57)" fill="white"/>
<circle cx="1500.52" cy="1922.2" r="1" transform="rotate(150.454 1500.52 1922.2)" fill="white"/>
<circle cx="1962.44" cy="1542.39" r="1" transform="rotate(52.5443 1962.44 1542.39)" fill="white"/>
<circle cx="370.554" cy="1778.57" r="1" transform="rotate(-28.6278 370.554 1778.57)" fill="white"/>
<circle cx="323.554" cy="1366.57" r="1" transform="rotate(-28.6278 323.554 1366.57)" fill="white"/>
<circle cx="340.548" cy="763.39" r="1" transform="rotate(-110.939 340.548 763.39)" fill="white"/>
<circle cx="1746.55" cy="495.39" r="1" transform="rotate(-110.939 1746.55 495.39)" fill="white"/>
<circle cx="931.548" cy="478.39" r="1" transform="rotate(-110.939 931.548 478.39)" fill="white"/>
<circle cx="135.213" cy="213.162" r="1" transform="rotate(72.3556 135.213 213.162)" fill="white"/>
<circle cx="1000.83" cy="577.316" r="1" transform="rotate(-28.6278 1000.83 577.316)" fill="white"/>
<circle cx="71.7366" cy="110.418" r="1" transform="rotate(154.667 71.7366 110.418)" fill="white"/>
<circle cx="1552.66" cy="930.472" r="1" transform="rotate(4.69154 1552.66 930.472)" fill="white"/>
<circle cx="1635.83" cy="1235.99" r="1" transform="rotate(-28.6278 1635.83 1235.99)" fill="white"/>
<circle cx="1767.55" cy="1442.25" r="1" transform="rotate(-28.6278 1767.55 1442.25)" fill="white"/>
<circle cx="919.452" cy="1984.84" r="1" transform="rotate(150.454 919.452 1984.84)" fill="white"/>
<circle cx="952.554" cy="1725.25" r="1" transform="rotate(-28.6278 952.554 1725.25)" fill="white"/>
<circle cx="1729.81" cy="1688.82" r="1" transform="rotate(150.454 1729.81 1688.82)" fill="white"/>
<circle cx="1699.72" cy="1347.4" r="1" transform="rotate(52.5443 1699.72 1347.4)" fill="white"/>
<circle cx="905.554" cy="1313.25" r="1" transform="rotate(-28.6278 905.554 1313.25)" fill="white"/>
<circle cx="365.569" cy="179.488" r="1" transform="rotate(-110.939 365.569 179.488)" fill="white"/>
<circle cx="683.078" cy="544.1" r="1" transform="rotate(72.3556 683.078 544.1)" fill="white"/>
<circle cx="1832.83" cy="879.993" r="1" transform="rotate(-28.6278 1832.83 879.993)" fill="white"/>
<circle cx="1493.83" cy="823.993" r="1" transform="rotate(-28.6278 1493.83 823.993)" fill="white"/>
<circle cx="1768.83" cy="1174.32" r="1" transform="rotate(-28.6278 1768.83 1174.32)" fill="white"/>
<circle cx="1297.83" cy="1230.32" r="1" transform="rotate(-28.6278 1297.83 1230.32)" fill="white"/>
<circle cx="1429.55" cy="1436.57" r="1" transform="rotate(-28.6278 1429.55 1436.57)" fill="white"/>
<circle cx="1257.5" cy="1985.11" r="1" transform="rotate(150.454 1257.5 1985.11)" fill="white"/>
<circle cx="614.554" cy="1719.57" r="1" transform="rotate(-28.6278 614.554 1719.57)" fill="white"/>
<circle cx="567.554" cy="1307.57" r="1" transform="rotate(-28.6278 567.554 1307.57)" fill="white"/>
<circle cx="314.722" cy="513.69" r="1" transform="rotate(-110.939 314.722 513.69)" fill="white"/>
<circle cx="753.048" cy="213.373" r="1" transform="rotate(72.3556 753.048 213.373)" fill="white"/>
<circle cx="1720.72" cy="245.69" r="1" transform="rotate(-110.939 1720.72 245.69)" fill="white"/>
<circle cx="905.722" cy="228.69" r="1" transform="rotate(-110.939 905.722 228.69)" fill="white"/>
<circle cx="146.645" cy="463.933" r="1" transform="rotate(72.3556 146.645 463.933)" fill="white"/>
<circle cx="1244.83" cy="518.316" r="1" transform="rotate(-28.6278 1244.83 518.316)" fill="white"/>
<circle cx="1788.96" cy="1015.2" r="1" transform="rotate(4.69154 1788.96 1015.2)" fill="white"/>
<circle cx="1644.83" cy="760.993" r="1" transform="rotate(-28.6278 1644.83 760.993)" fill="white"/>
<circle cx="950" cy="1001" r="1" fill="white"/>
<circle cx="1081.73" cy="1207.25" r="1" fill="white"/>
<circle cx="266.729" cy="1490.25" r="1" fill="white"/>
<circle cx="219.729" cy="1078.25" r="1" fill="white"/>
<circle cx="40.9334" cy="827.71" r="1" transform="rotate(-82.3116 40.9334 827.71)" fill="white"/>
<circle cx="1755.93" cy="818.71" r="1" transform="rotate(-82.3116 1755.93 818.71)" fill="white"/>
<circle cx="1446.93" cy="559.71" r="1" transform="rotate(-82.3116 1446.93 559.71)" fill="white"/>
<circle cx="631.933" cy="542.71" r="1" transform="rotate(-82.3116 631.933 542.71)" fill="white"/>
<circle cx="438.03" cy="166.169" r="1" transform="rotate(100.983 438.03 166.169)" fill="white"/>
<circle cx="1225" cy="1351.32" r="1" fill="white"/>
<circle cx="1356.73" cy="1557.57" r="1" fill="white"/>
<circle cx="1328.38" cy="1862.95" r="1" transform="rotate(179.082 1328.38 1862.95)" fill="white"/>
<circle cx="541.729" cy="1840.57" r="1" fill="white"/>
<circle cx="494.729" cy="1428.57" r="1" fill="white"/>
<circle cx="424.898" cy="602.05" r="1" transform="rotate(-82.3116 424.898 602.05)" fill="white"/>
<circle cx="648.133" cy="118.826" r="1" transform="rotate(100.983 648.133 118.826)" fill="white"/>
<circle cx="1830.9" cy="334.05" r="1" transform="rotate(-82.3116 1830.9 334.05)" fill="white"/>
<circle cx="1015.9" cy="317.05" r="1" transform="rotate(-82.3116 1015.9 317.05)" fill="white"/>
<circle cx="41.7292" cy="369.387" r="1" transform="rotate(100.983 41.7292 369.387)" fill="white"/>
<circle cx="754" cy="1407.32" r="1" fill="white"/>
<circle cx="1983.41" cy="1102.41" r="1" transform="rotate(81.1722 1983.41 1102.41)" fill="white"/>
<circle cx="885.729" cy="1613.57" r="1" fill="white"/>
<circle cx="1798.42" cy="1799.41" r="1" transform="rotate(179.082 1798.42 1799.41)" fill="white"/>
<circle cx="1799.81" cy="1264.23" r="1" transform="rotate(81.1722 1799.81 1264.23)" fill="white"/>
<circle cx="70.7285" cy="1896.57" r="1" fill="white"/>
<circle cx="23.7285" cy="1484.57" r="1" fill="white"/>
<circle cx="417.382" cy="1076.31" r="1" transform="rotate(-82.3116 417.382 1076.31)" fill="white"/>
<circle cx="1823.38" cy="808.308" r="1" transform="rotate(-82.3116 1823.38 808.308)" fill="white"/>
<circle cx="1008.38" cy="791.308" r="1" transform="rotate(-82.3116 1008.38 791.308)" fill="white"/>
<circle cx="701" cy="695.322" r="1" fill="white"/>
<circle cx="377.849" cy="9.8392" r="1" transform="rotate(-176.705 377.849 9.8392)" fill="white"/>
<circle cx="1237.29" cy="864.385" r="1" transform="rotate(33.3194 1237.29 864.385)" fill="white"/>
<circle cx="1129.78" cy="1278.52" r="1" transform="rotate(20.4808 1129.78 1278.52)" fill="white"/>
<circle cx="1261.51" cy="1484.77" r="1" transform="rotate(20.4808 1261.51 1484.77)" fill="white"/>
<circle cx="1424.75" cy="1934.21" r="1" transform="rotate(-160.437 1424.75 1934.21)" fill="white"/>
<circle cx="446.511" cy="1767.77" r="1" transform="rotate(20.4808 446.511 1767.77)" fill="white"/>
<circle cx="399.511" cy="1355.77" r="1" transform="rotate(20.4808 399.511 1355.77)" fill="white"/>
<circle cx="340.013" cy="686.672" r="1" transform="rotate(-61.8308 340.013 686.672)" fill="white"/>
<circle cx="737.742" cy="39.2231" r="1" transform="rotate(121.464 737.742 39.2231)" fill="white"/>
<circle cx="1746.01" cy="418.672" r="1" transform="rotate(-61.8308 1746.01 418.672)" fill="white"/>
<circle cx="931.013" cy="401.672" r="1" transform="rotate(-61.8308 931.013 401.672)" fill="white"/>
<circle cx="131.338" cy="289.784" r="1" transform="rotate(121.464 131.338 289.784)" fill="white"/>
<circle cx="1404.78" cy="1628.84" r="1" transform="rotate(20.4808 1404.78 1628.84)" fill="white"/>
<circle cx="1279.19" cy="1792.46" r="1" transform="rotate(-160.437 1279.19 1792.46)" fill="white"/>
<circle cx="933.782" cy="1684.84" r="1" transform="rotate(20.4808 933.782 1684.84)" fill="white"/>
<circle cx="1749.23" cy="1728.92" r="1" transform="rotate(-160.437 1749.23 1728.92)" fill="white"/>
<circle cx="1736.76" cy="1322.65" r="1" transform="rotate(101.653 1736.76 1322.65)" fill="white"/>
<circle cx="880.782" cy="972.843" r="1" transform="rotate(20.4808 880.782 972.843)" fill="white"/>
<circle cx="1012.51" cy="1179.1" r="1" transform="rotate(20.4808 1012.51 1179.1)" fill="white"/>
<circle cx="197.511" cy="1462.1" r="1" transform="rotate(20.4808 197.511 1462.1)" fill="white"/>
<circle cx="150.511" cy="1050.1" r="1" transform="rotate(20.4808 150.511 1050.1)" fill="white"/>
<circle cx="3.76965" cy="892.538" r="1" transform="rotate(-61.8308 3.76965 892.538)" fill="white"/>
<circle cx="1718.77" cy="883.538" r="1" transform="rotate(-61.8308 1718.77 883.538)" fill="white"/>
<circle cx="1409.77" cy="624.538" r="1" transform="rotate(-61.8308 1409.77 624.538)" fill="white"/>
<circle cx="594.77" cy="607.538" r="1" transform="rotate(-61.8308 594.77 607.538)" fill="white"/>
<circle cx="478.858" cy="103.583" r="1" transform="rotate(121.464 478.858 103.583)" fill="white"/>
<circle cx="1235.08" cy="1195.04" r="1" transform="rotate(53.8001 1235.08 1195.04)" fill="white"/>
<circle cx="1366.81" cy="1401.3" r="1" transform="rotate(53.8001 1366.81 1401.3)" fill="white"/>
<circle cx="551.807" cy="1684.3" r="1" transform="rotate(53.8001 551.807 1684.3)" fill="white"/>
<circle cx="504.807" cy="1272.3" r="1" transform="rotate(53.8001 504.807 1272.3)" fill="white"/>
<circle cx="271.372" cy="571.154" r="1" transform="rotate(-28.5114 271.372 571.154)" fill="white"/>
<circle cx="799.63" cy="158.495" r="1" transform="rotate(154.784 799.63 158.495)" fill="white"/>
<circle cx="1986.37" cy="562.154" r="1" transform="rotate(-28.5114 1986.37 562.154)" fill="white"/>
<circle cx="1677.37" cy="303.154" r="1" transform="rotate(-28.5114 1677.37 303.154)" fill="white"/>
<circle cx="862.372" cy="286.154" r="1" transform="rotate(-28.5114 862.372 286.154)" fill="white"/>
<circle cx="193.227" cy="409.056" r="1" transform="rotate(154.784 193.227 409.056)" fill="white"/>
<circle cx="608.899" cy="1486.9" r="1" transform="rotate(-53.9622 608.899 1486.9)" fill="white"/>
<circle cx="883.899" cy="1837.23" r="1" transform="rotate(-53.9622 883.899 1837.23)" fill="white"/>
<circle cx="412.899" cy="1893.23" r="1" transform="rotate(-53.9622 412.899 1893.23)" fill="white"/>
<circle cx="359.899" cy="1181.23" r="1" transform="rotate(-53.9622 359.899 1181.23)" fill="white"/>
<circle cx="685.351" cy="1083.05" r="1" transform="rotate(-20.6428 685.351 1083.05)" fill="white"/>
<circle cx="483.714" cy="944.189" r="1" transform="rotate(-28.6278 483.714 944.189)" fill="white"/>
<circle cx="758.714" cy="1294.51" r="1" transform="rotate(-28.6278 758.714 1294.51)" fill="white"/>
<circle cx="890.443" cy="1500.76" r="1" transform="rotate(-28.6278 890.443 1500.76)" fill="white"/>
<circle cx="1795.51" cy="1912.28" r="1" transform="rotate(150.454 1795.51 1912.28)" fill="white"/>
<circle cx="1912.01" cy="1251.58" r="1" transform="rotate(52.5443 1912.01 1251.58)" fill="white"/>
<circle cx="75.4428" cy="1783.76" r="1" transform="rotate(-28.6278 75.4428 1783.76)" fill="white"/>
<circle cx="28.4428" cy="1371.76" r="1" transform="rotate(-28.6278 28.4428 1371.76)" fill="white"/>
<circle cx="306.215" cy="1056.54" r="1" transform="rotate(-110.939 306.215 1056.54)" fill="white"/>
<circle cx="1712.22" cy="788.543" r="1" transform="rotate(-110.939 1712.22 788.543)" fill="white"/>
<circle cx="897.215" cy="771.543" r="1" transform="rotate(-110.939 897.215 771.543)" fill="white"/>
<circle cx="287.714" cy="1350.51" r="1" transform="rotate(-28.6278 287.714 1350.51)" fill="white"/>
<circle cx="234.714" cy="638.511" r="1" transform="rotate(-28.6278 234.714 638.511)" fill="white"/>
<circle cx="840.099" cy="93.3566" r="1" transform="rotate(154.667 840.099 93.3566)" fill="white"/>
<circle cx="878.86" cy="560.78" r="1" transform="rotate(4.69154 878.86 560.78)" fill="white"/>
<circle cx="192.55" cy="133.937" r="1" transform="rotate(-172.013 192.55 133.937)" fill="white"/>
<circle cx="385.415" cy="657.511" r="1" transform="rotate(-28.6278 385.415 657.511)" fill="white"/>
<circle cx="690.739" cy="65.7262" r="1" transform="rotate(154.667 690.739 65.7262)" fill="white"/>
<circle cx="660.415" cy="1007.83" r="1" transform="rotate(-28.6278 660.415 1007.83)" fill="white"/>
<circle cx="189.415" cy="1063.83" r="1" transform="rotate(-28.6278 189.415 1063.83)" fill="white"/>
<circle cx="136.415" cy="351.834" r="1" transform="rotate(-28.6278 136.415 351.834)" fill="white"/>
<circle cx="954.193" cy="267.23" r="1" transform="rotate(4.69154 954.193 267.23)" fill="white"/>
<circle cx="100.469" cy="422.671" r="1" transform="rotate(-172.013 100.469 422.671)" fill="white"/>
<circle cx="746.415" cy="697.511" r="1" transform="rotate(-28.6278 746.415 697.511)" fill="white"/>
<circle cx="332.634" cy="5.04308" r="1" transform="rotate(154.667 332.634 5.04308)" fill="white"/>
<circle cx="1021.42" cy="1047.83" r="1" transform="rotate(-28.6278 1021.42 1047.83)" fill="white"/>
<circle cx="1153.14" cy="1254.09" r="1" transform="rotate(-28.6278 1153.14 1254.09)" fill="white"/>
<circle cx="338.144" cy="1537.09" r="1" transform="rotate(-28.6278 338.144 1537.09)" fill="white"/>
<circle cx="291.144" cy="1125.09" r="1" transform="rotate(-28.6278 291.144 1125.09)" fill="white"/>
<circle cx="96.9008" cy="763.202" r="1" transform="rotate(-110.939 96.9008 763.202)" fill="white"/>
<circle cx="1811.9" cy="754.202" r="1" transform="rotate(-110.939 1811.9 754.202)" fill="white"/>
<circle cx="1502.9" cy="495.202" r="1" transform="rotate(-110.939 1502.9 495.202)" fill="white"/>
<circle cx="687.901" cy="478.202" r="1" transform="rotate(-110.939 687.901 478.202)" fill="white"/>
<circle cx="378.447" cy="227.353" r="1" transform="rotate(72.3556 378.447 227.353)" fill="white"/>
<circle cx="550.415" cy="1103.83" r="1" transform="rotate(-28.6278 550.415 1103.83)" fill="white"/>
<circle cx="497.415" cy="391.834" r="1" transform="rotate(-28.6278 497.415 391.834)" fill="white"/>
<circle cx="563.654" cy="324.527" r="1" transform="rotate(154.667 563.654 324.527)" fill="white"/>
<circle cx="1233.88" cy="498.954" r="1" transform="rotate(4.69154 1233.88 498.954)" fill="white"/>
<circle cx="1132.42" cy="1050.51" r="1" transform="rotate(-28.6278 1132.42 1050.51)" fill="white"/>
<circle cx="1264.14" cy="1256.76" r="1" transform="rotate(-28.6278 1264.14 1256.76)" fill="white"/>
<circle cx="449.144" cy="1539.76" r="1" transform="rotate(-28.6278 449.144 1539.76)" fill="white"/>
<circle cx="402.144" cy="1127.76" r="1" transform="rotate(-28.6278 402.144 1127.76)" fill="white"/>
<circle cx="114.405" cy="653.558" r="1" transform="rotate(-110.939 114.405 653.558)" fill="white"/>
<circle cx="1829.4" cy="644.558" r="1" transform="rotate(-110.939 1829.4 644.558)" fill="white"/>
<circle cx="1520.4" cy="385.558" r="1" transform="rotate(-110.939 1520.4 385.558)" fill="white"/>
<circle cx="705.405" cy="368.558" r="1" transform="rotate(-110.939 705.405 368.558)" fill="white"/>
<circle cx="354.67" cy="335.81" r="1" transform="rotate(72.3556 354.67 335.81)" fill="white"/>
<circle cx="1407.42" cy="1400.83" r="1" transform="rotate(-28.6278 1407.42 1400.83)" fill="white"/>
<circle cx="1539.14" cy="1607.09" r="1" transform="rotate(-28.6278 1539.14 1607.09)" fill="white"/>
<circle cx="1645" cy="1547.51" r="1" transform="rotate(-126.538 1645 1547.51)" fill="white"/>
<circle cx="1145.19" cy="1816.37" r="1" transform="rotate(150.454 1145.19 1816.37)" fill="white"/>
<circle cx="724.144" cy="1890.09" r="1" transform="rotate(-28.6278 724.144 1890.09)" fill="white"/>
<circle cx="677.144" cy="1478.09" r="1" transform="rotate(-28.6278 677.144 1478.09)" fill="white"/>
<circle cx="1901.69" cy="1037.32" r="1" transform="rotate(52.5443 1901.69 1037.32)" fill="white"/>
<circle cx="498.369" cy="427.898" r="1" transform="rotate(-110.939 498.369 427.898)" fill="white"/>
<circle cx="564.775" cy="288.467" r="1" transform="rotate(72.3556 564.775 288.467)" fill="white"/>
<circle cx="1904.37" cy="159.898" r="1" transform="rotate(-110.939 1904.37 159.898)" fill="white"/>
<circle cx="1089.37" cy="142.898" r="1" transform="rotate(-110.939 1089.37 142.898)" fill="white"/>
<circle cx="936.415" cy="1456.83" r="1" transform="rotate(-28.6278 936.415 1456.83)" fill="white"/>
<circle cx="1750.25" cy="1956.94" r="1" transform="rotate(150.454 1750.25 1956.94)" fill="white"/>
<circle cx="1962.48" cy="1290.26" r="1" transform="rotate(52.5443 1962.48 1290.26)" fill="white"/>
<circle cx="1068.14" cy="1663.09" r="1" transform="rotate(-28.6278 1068.14 1663.09)" fill="white"/>
<circle cx="1615.23" cy="1752.83" r="1" transform="rotate(150.454 1615.23 1752.83)" fill="white"/>
<circle cx="1778.88" cy="1452.08" r="1" transform="rotate(52.5443 1778.88 1452.08)" fill="white"/>
<circle cx="253.144" cy="1946.09" r="1" transform="rotate(-28.6278 253.144 1946.09)" fill="white"/>
<circle cx="206.144" cy="1534.09" r="1" transform="rotate(-28.6278 206.144 1534.09)" fill="white"/>
<circle cx="490.852" cy="902.156" r="1" transform="rotate(-110.939 490.852 902.156)" fill="white"/>
<circle cx="1896.85" cy="634.156" r="1" transform="rotate(-110.939 1896.85 634.156)" fill="white"/>
<circle cx="1081.85" cy="617.156" r="1" transform="rotate(-110.939 1081.85 617.156)" fill="white"/>
<circle cx="883.415" cy="744.834" r="1" transform="rotate(-28.6278 883.415 744.834)" fill="white"/>
<circle cx="1362.53" cy="1005.96" r="1" transform="rotate(4.69154 1362.53 1005.96)" fill="white"/>
<circle cx="1494.25" cy="1212.21" r="1" transform="rotate(4.69154 1494.25 1212.21)" fill="white"/>
<circle cx="679.254" cy="1495.21" r="1" transform="rotate(4.69154 679.254 1495.21)" fill="white"/>
<circle cx="1885.09" cy="1042.04" r="1" transform="rotate(85.8637 1885.09 1042.04)" fill="white"/>
<circle cx="632.254" cy="1083.21" r="1" transform="rotate(4.69154 632.254 1083.21)" fill="white"/>
<circle cx="101.04" cy="419.556" r="1" transform="rotate(-77.62 101.04 419.556)" fill="white"/>
<circle cx="1816.04" cy="410.556" r="1" transform="rotate(-77.62 1816.04 410.556)" fill="white"/>
<circle cx="1507.04" cy="151.556" r="1" transform="rotate(-77.62 1507.04 151.556)" fill="white"/>
<circle cx="692.04" cy="134.556" r="1" transform="rotate(-77.62 692.04 134.556)" fill="white"/>
<circle cx="1329.42" cy="694.511" r="1" transform="rotate(-28.6278 1329.42 694.511)" fill="white"/>
<circle cx="1604.42" cy="1044.83" r="1" transform="rotate(-28.6278 1604.42 1044.83)" fill="white"/>
<circle cx="1736.14" cy="1251.09" r="1" transform="rotate(-28.6278 1736.14 1251.09)" fill="white"/>
<circle cx="921.144" cy="1534.09" r="1" transform="rotate(-28.6278 921.144 1534.09)" fill="white"/>
<circle cx="1764.28" cy="1879.46" r="1" transform="rotate(150.454 1764.28 1879.46)" fill="white"/>
<circle cx="1883.8" cy="1287.03" r="1" transform="rotate(52.5443 1883.8 1287.03)" fill="white"/>
<circle cx="874.144" cy="1122.09" r="1" transform="rotate(-28.6278 874.144 1122.09)" fill="white"/>
<circle cx="171.925" cy="185.041" r="1" transform="rotate(-110.939 171.925 185.041)" fill="white"/>
<circle cx="1886.93" cy="176.041" r="1" transform="rotate(-110.939 1886.93 176.041)" fill="white"/>
<circle cx="1133.42" cy="1100.83" r="1" transform="rotate(-28.6278 1133.42 1100.83)" fill="white"/>
<circle cx="1265.14" cy="1307.09" r="1" transform="rotate(-28.6278 1265.14 1307.09)" fill="white"/>
<circle cx="450.144" cy="1590.09" r="1" transform="rotate(-28.6278 450.144 1590.09)" fill="white"/>
<circle cx="403.144" cy="1178.09" r="1" transform="rotate(-28.6278 403.144 1178.09)" fill="white"/>
<circle cx="164.409" cy="659.299" r="1" transform="rotate(-110.939 164.409 659.299)" fill="white"/>
<circle cx="1879.41" cy="650.299" r="1" transform="rotate(-110.939 1879.41 650.299)" fill="white"/>
<circle cx="1570.41" cy="391.299" r="1" transform="rotate(-110.939 1570.41 391.299)" fill="white"/>
<circle cx="755.409" cy="374.299" r="1" transform="rotate(-110.939 755.409 374.299)" fill="white"/>
<circle cx="305.079" cy="327.204" r="1" transform="rotate(72.3556 305.079 327.204)" fill="white"/>
<circle cx="1080.42" cy="388.834" r="1" transform="rotate(-28.6278 1080.42 388.834)" fill="white"/>
<circle cx="1722.7" cy="816.692" r="1" transform="rotate(4.69154 1722.7 816.692)" fill="white"/>
<circle cx="990.415" cy="638.511" r="1" transform="rotate(-28.6278 990.415 638.511)" fill="white"/>
<circle cx="85.6468" cy="49.9215" r="1" transform="rotate(154.667 85.6468 49.9215)" fill="white"/>
<circle cx="1265.42" cy="988.834" r="1" transform="rotate(-28.6278 1265.42 988.834)" fill="white"/>
<circle cx="1397.14" cy="1195.09" r="1" transform="rotate(-28.6278 1397.14 1195.09)" fill="white"/>
<circle cx="582.144" cy="1478.09" r="1" transform="rotate(-28.6278 582.144 1478.09)" fill="white"/>
<circle cx="535.144" cy="1066.09" r="1" transform="rotate(-28.6278 535.144 1066.09)" fill="white"/>
<circle cx="71.0746" cy="513.502" r="1" transform="rotate(-110.939 71.0746 513.502)" fill="white"/>
<circle cx="1786.07" cy="504.502" r="1" transform="rotate(-110.939 1786.07 504.502)" fill="white"/>
<circle cx="1477.07" cy="245.502" r="1" transform="rotate(-110.939 1477.07 245.502)" fill="white"/>
<circle cx="662.075" cy="228.502" r="1" transform="rotate(-110.939 662.075 228.502)" fill="white"/>
<circle cx="389.878" cy="478.125" r="1" transform="rotate(72.3556 389.878 478.125)" fill="white"/>
<circle cx="794.415" cy="1044.83" r="1" transform="rotate(-28.6278 794.415 1044.83)" fill="white"/>
<circle cx="926.144" cy="1251.09" r="1" transform="rotate(-28.6278 926.144 1251.09)" fill="white"/>
<circle cx="111.144" cy="1534.09" r="1" transform="rotate(-28.6278 111.144 1534.09)" fill="white"/>
<circle cx="64.144" cy="1122.09" r="1" transform="rotate(-28.6278 64.144 1122.09)" fill="white"/>
<circle cx="63.558" cy="987.76" r="1" transform="rotate(-110.939 63.558 987.76)" fill="white"/>
<circle cx="1778.56" cy="978.76" r="1" transform="rotate(-110.939 1778.56 978.76)" fill="white"/>
<circle cx="1469.56" cy="719.76" r="1" transform="rotate(-110.939 1469.56 719.76)" fill="white"/>
<circle cx="654.558" cy="702.76" r="1" transform="rotate(-110.939 654.558 702.76)" fill="white"/>
<circle cx="424.641" cy="5.08321" r="1" transform="rotate(72.3556 424.641 5.08321)" fill="white"/>
<circle cx="741.415" cy="332.834" r="1" transform="rotate(-28.6278 741.415 332.834)" fill="white"/>
<circle cx="316.665" cy="369.405" r="1" transform="rotate(154.667 316.665 369.405)" fill="white"/>
<circle cx="1470.18" cy="583.682" r="1" transform="rotate(4.69154 1470.18 583.682)" fill="white"/>
<circle cx="1141.42" cy="575.511" r="1" transform="rotate(-28.6278 1141.42 575.511)" fill="white"/>
<circle cx="1416.42" cy="925.834" r="1" transform="rotate(-28.6278 1416.42 925.834)" fill="white"/>
<circle cx="945.415" cy="981.834" r="1" transform="rotate(-28.6278 945.415 981.834)" fill="white"/>
<circle cx="1077.14" cy="1188.09" r="1" transform="rotate(-28.6278 1077.14 1188.09)" fill="white"/>
<circle cx="262.144" cy="1471.09" r="1" transform="rotate(-28.6278 262.144 1471.09)" fill="white"/>
<circle cx="215.144" cy="1059.09" r="1" transform="rotate(-28.6278 215.144 1059.09)" fill="white"/>
<circle cx="21.3266" cy="829.689" r="1" transform="rotate(-110.939 21.3266 829.689)" fill="white"/>
<circle cx="1736.33" cy="820.689" r="1" transform="rotate(-110.939 1736.33 820.689)" fill="white"/>
<circle cx="1427.33" cy="561.689" r="1" transform="rotate(-110.939 1427.33 561.689)" fill="white"/>
<circle cx="612.327" cy="544.689" r="1" transform="rotate(-110.939 612.327 544.689)" fill="white"/>
<circle cx="457.718" cy="165.32" r="1" transform="rotate(72.3556 457.718 165.32)" fill="white"/>
<circle cx="892.415" cy="269.834" r="1" transform="rotate(-28.6278 892.415 269.834)" fill="white"/>
<circle cx="162.294" cy="423.622" r="1" transform="rotate(154.667 162.294 423.622)" fill="white"/>
<circle cx="1630.97" cy="613.984" r="1" transform="rotate(4.69154 1630.97 613.984)" fill="white"/>
<circle cx="1427" cy="618" r="1" fill="white"/>
<circle cx="1702" cy="968.322" r="1" fill="white"/>
<circle cx="1833.73" cy="1174.57" r="1" fill="white"/>
<circle cx="1018.73" cy="1457.57" r="1" fill="white"/>
<circle cx="1667.94" cy="1957.52" r="1" transform="rotate(179.082 1667.94 1957.52)" fill="white"/>
<circle cx="1974.38" cy="1371.71" r="1" transform="rotate(81.1722 1974.38 1371.71)" fill="white"/>
<circle cx="971.729" cy="1045.57" r="1" fill="white"/>
<circle cx="109.157" cy="78.0979" r="1" transform="rotate(-82.3116 109.157 78.0979)" fill="white"/>
<circle cx="1824.16" cy="69.0979" r="1" transform="rotate(-82.3116 1824.16 69.0979)" fill="white"/>
<circle cx="1231" cy="1024.32" r="1" fill="white"/>
<circle cx="1362.73" cy="1230.57" r="1" fill="white"/>
<circle cx="547.729" cy="1513.57" r="1" fill="white"/>
<circle cx="500.729" cy="1101.57" r="1" fill="white"/>
<circle cx="101.64" cy="552.356" r="1" transform="rotate(-82.3116 101.64 552.356)" fill="white"/>
<circle cx="1816.64" cy="543.356" r="1" transform="rotate(-82.3116 1816.64 543.356)" fill="white"/>
<circle cx="1507.64" cy="284.356" r="1" transform="rotate(-82.3116 1507.64 284.356)" fill="white"/>
<circle cx="692.64" cy="267.356" r="1" transform="rotate(-82.3116 692.64 267.356)" fill="white"/>
<circle cx="361.596" cy="437.579" r="1" transform="rotate(100.983 361.596 437.579)" fill="white"/>
<circle cx="1178" cy="312.322" r="1" fill="white"/>
<circle cx="1846.27" cy="806.361" r="1" transform="rotate(33.3194 1846.27 806.361)" fill="white"/>
<circle cx="1710.64" cy="1086.63" r="1" transform="rotate(20.4808 1710.64 1086.63)" fill="white"/>
<circle cx="1842.37" cy="1292.88" r="1" transform="rotate(20.4808 1842.37 1292.88)" fill="white"/>
<circle cx="1027.37" cy="1575.88" r="1" transform="rotate(20.4808 1027.37 1575.88)" fill="white"/>
<circle cx="1657.4" cy="1839.37" r="1" transform="rotate(-160.437 1657.4 1839.37)" fill="white"/>
<circle cx="1858.8" cy="1398.41" r="1" transform="rotate(101.653 1858.8 1398.41)" fill="white"/>
<circle cx="980.368" cy="1163.88" r="1" transform="rotate(20.4808 980.368 1163.88)" fill="white"/>
<circle cx="227.557" cy="85.364" r="1" transform="rotate(-61.8308 227.557 85.364)" fill="white"/>
<circle cx="1942.56" cy="76.364" r="1" transform="rotate(-61.8308 1942.56 76.364)" fill="white"/>
<circle cx="579.823" cy="875.862" r="1" transform="rotate(-53.9622 579.823 875.862)" fill="white"/>
<circle cx="854.823" cy="1226.18" r="1" transform="rotate(-53.9622 854.823 1226.18)" fill="white"/>
<circle cx="986.551" cy="1432.44" r="1" transform="rotate(-53.9622 986.551 1432.44)" fill="white"/>
<circle cx="1700.51" cy="1982.14" r="1" transform="rotate(125.12 1700.51 1982.14)" fill="white"/>
<circle cx="1994.28" cy="1336.06" r="1" transform="rotate(27.21 1994.28 1336.06)" fill="white"/>
<circle cx="171.551" cy="1715.44" r="1" transform="rotate(-53.9622 171.551 1715.44)" fill="white"/>
<circle cx="124.551" cy="1303.44" r="1" transform="rotate(-53.9622 124.551 1303.44)" fill="white"/>
<circle cx="251.36" cy="952.158" r="1" transform="rotate(-136.274 251.36 952.158)" fill="white"/>
<circle cx="1966.36" cy="943.158" r="1" transform="rotate(-136.274 1966.36 943.158)" fill="white"/>
<circle cx="1657.36" cy="684.158" r="1" transform="rotate(-136.274 1657.36 684.158)" fill="white"/>
<circle cx="842.36" cy="667.158" r="1" transform="rotate(-136.274 842.36 667.158)" fill="white"/>
<circle cx="235.103" cy="29.8318" r="1" transform="rotate(47.0212 235.103 29.8318)" fill="white"/>
<circle cx="383.823" cy="1282.18" r="1" transform="rotate(-53.9622 383.823 1282.18)" fill="white"/>
<circle cx="330.823" cy="570.184" r="1" transform="rotate(-53.9622 330.823 570.184)" fill="white"/>
<circle cx="740.222" cy="156.047" r="1" transform="rotate(129.333 740.222 156.047)" fill="white"/>
<circle cx="996.703" cy="556.477" r="1" transform="rotate(-20.6428 996.703 556.477)" fill="white"/>
<circle cx="74.6545" cy="131.459" r="1" transform="rotate(162.652 74.6545 131.459)" fill="white"/>
<circle cx="718.9" cy="379.472" r="1" transform="rotate(-28.6278 718.9 379.472)" fill="white"/>
<circle cx="341.825" cy="324.138" r="1" transform="rotate(154.667 341.825 324.138)" fill="white"/>
<circle cx="993.9" cy="729.794" r="1" transform="rotate(-28.6278 993.9 729.794)" fill="white"/>
<circle cx="522.9" cy="785.794" r="1" transform="rotate(-28.6278 522.9 785.794)" fill="white"/>
<circle cx="469.9" cy="73.7941" r="1" transform="rotate(-28.6278 469.9 73.7941)" fill="white"/>
<circle cx="1385.59" cy="218.078" r="1" transform="rotate(4.69154 1385.59 218.078)" fill="white"/>
<circle cx="620.601" cy="92.7941" r="1" transform="rotate(-28.6278 620.601 92.7941)" fill="white"/>
<circle cx="981.601" cy="132.794" r="1" transform="rotate(-28.6278 981.601 132.794)" fill="white"/>
<circle cx="1367.6" cy="485.794" r="1" transform="rotate(-28.6278 1367.6 485.794)" fill="white"/>
<circle cx="1642.6" cy="836.116" r="1" transform="rotate(-28.6278 1642.6 836.116)" fill="white"/>
<circle cx="1171.6" cy="892.116" r="1" transform="rotate(-28.6278 1171.6 892.116)" fill="white"/>
<circle cx="1118.6" cy="180.116" r="1" transform="rotate(-28.6278 1118.6 180.116)" fill="white"/>
<circle cx="1869.25" cy="663.259" r="1" transform="rotate(4.69154 1869.25 663.259)" fill="white"/>
<circle cx="1564.6" cy="129.794" r="1" transform="rotate(-28.6278 1564.6 129.794)" fill="white"/>
<circle cx="1225.6" cy="73.7941" r="1" transform="rotate(-28.6278 1225.6 73.7941)" fill="white"/>
<circle cx="1376.6" cy="10.7941" r="1" transform="rotate(-28.6278 1376.6 10.7941)" fill="white"/>
</g>
<defs>
<clipPath id="clip0_102_2">
<rect width="2000" height="2000" fill="white"/>
</clipPath>
</defs>
</svg>
